M48
;DRILL file {kicad (after 2015-mar-04 BZR unknown)-product} date Wed 28 Oct 2015 16:02:46 CET
;FORMAT={-:-/ absolute / inch / decimal}
FMAT,2
INCH,TZ
T1C0.028
T2C0.031
T3C0.032
T4C0.039
T5C0.039
T6C0.039
T7C0.040
T8C0.063
T9C0.138
%
G90
G05
M72
T1
X2.9593Y0.4603
X3.015Y0.516
X3.0707Y0.5717
T2
X1.465Y2.716
X1.465Y2.5782
X2.11Y1.011
X2.11Y0.8732
X3.285Y1.9888
X3.285Y1.851
T3
X1.165Y1.091
X1.165Y0.791
X1.265Y1.091
X1.265Y0.791
X1.365Y1.091
X1.365Y0.791
X1.465Y1.091
X1.465Y0.791
X1.565Y1.091
X1.565Y0.791
X1.665Y1.091
X1.665Y0.791
X1.765Y1.091
X1.765Y0.791
X1.865Y1.091
X1.865Y0.791
T4
X1.5725Y0.4035
X1.5725Y0.3035
X2.5175Y0.7085
X2.6175Y0.7085
X3.08Y0.886
X3.08Y0.786
T5
X1.265Y0.8735
X1.324Y2.7
X1.364Y1.014
X1.665Y1.011
X1.762Y0.864
X1.852Y2.364
X1.892Y1.726
X1.9925Y1.721
X2.2475Y0.791
X2.598Y0.896
X2.7432Y2.3264
X2.8846Y2.4678
X2.9036Y0.4046
X2.9554Y2.1142
X3.0968Y2.2556
X3.1264Y0.6274
T6
X1.09Y2.7445
X1.09Y2.5476
X1.235Y2.7344
X1.235Y2.5375
X2.3965Y1.951
X2.45Y2.4194
X2.45Y2.2225
X2.585Y2.5894
X2.585Y2.3925
X2.5934Y1.951
X2.944Y1.918
X3.044Y1.918
T7
X1.1675Y2.4135
X1.1675Y1.8135
X1.2675Y2.4135
X1.2675Y1.8135
X1.3675Y2.4135
X1.3675Y1.8135
X1.4675Y2.4135
X1.4675Y1.8135
X1.5175Y2.3135
X1.5675Y2.4135
X1.5675Y1.8135
X1.6175Y2.3135
X1.6675Y2.4135
X1.6675Y1.8135
X1.67Y2.691
X1.765Y2.541
X1.7675Y2.4135
X1.7675Y1.8135
X1.77Y2.691
X1.865Y2.541
X1.8675Y2.4135
X1.8675Y1.8135
X1.87Y2.691
X1.965Y2.541
X1.9675Y2.4135
X1.9675Y1.8135
X1.97Y2.691
X2.065Y2.541
X2.0675Y2.4135
X2.0675Y1.8135
X2.07Y2.691
X2.1675Y2.4135
X2.1675Y1.8135
X2.2675Y2.4135
X2.2675Y1.8135
X2.43Y1.811
X2.53Y1.811
X3.195Y1.646
X3.195Y1.546
X3.195Y1.446
X3.195Y1.346
X3.195Y1.246
T8
X1.1975Y0.5285
X1.1975Y0.1835
X1.4975Y0.5285
X1.4975Y0.1835
X1.6925Y0.5235
X1.6925Y0.1785
X1.9925Y0.5235
X1.9925Y0.1785
X2.3975Y1.0935
X2.3975Y0.7935
X2.3975Y0.6035
X2.3975Y0.3035
X2.7425Y1.0935
X2.7425Y0.7935
X2.7475Y0.6135
X2.7475Y0.3135
X3.01Y1.061
X3.31Y1.061
T9
X0.2Y1.426
X2.168Y0.32
X2.782Y2.04
T0
M30
