G04 #@! TF.FileFunction,Copper,L2,Bot,Signal*
%FSLAX46Y46*%
G04 Gerber Fmt 4.6, Leading zero omitted, Abs format (unit mm)*
G04 Created by KiCad (PCBNEW (after 2015-mar-04 BZR unknown)-product) date Wed 28 Oct 2015 16:02:44 CET*
%MOMM*%
G01*
G04 APERTURE LIST*
%ADD10C,0.100000*%
%ADD11C,5.000000*%
%ADD12C,2.000000*%
%ADD13O,1.727200X2.032000*%
%ADD14C,1.778000*%
%ADD15C,1.300000*%
%ADD16R,1.300000X1.300000*%
%ADD17R,1.900000X2.000000*%
%ADD18C,1.900000*%
%ADD19R,1.574800X2.286000*%
%ADD20O,1.574800X2.286000*%
%ADD21O,3.014980X1.506220*%
%ADD22R,2.032000X2.032000*%
%ADD23O,2.032000X2.032000*%
%ADD24R,1.727200X2.032000*%
%ADD25R,2.032000X1.727200*%
%ADD26O,2.032000X1.727200*%
%ADD27O,1.506220X3.014980*%
%ADD28C,1.998980*%
%ADD29C,3.540760*%
%ADD30R,3.540760X3.540760*%
%ADD31C,1.500000*%
%ADD32C,2.000000*%
%ADD33C,0.700000*%
%ADD34C,0.400000*%
%ADD35C,0.254000*%
G04 APERTURE END LIST*
D10*
D11*
X55067200Y8128000D03*
X70662800Y51816000D03*
X5080000Y36220400D03*
D12*
X70031425Y58735873D02*
X69324319Y59442979D01*
X73623527Y62327975D02*
X72916421Y63035081D01*
X75419579Y53347719D02*
X74712473Y54054825D01*
X79011681Y56939821D02*
X78304575Y57646927D01*
D13*
X29654500Y46062900D03*
X32194500Y46062900D03*
X34734500Y46062900D03*
X37274500Y46062900D03*
X39814500Y46062900D03*
X42354500Y46062900D03*
X44894500Y46062900D03*
X47434500Y46062900D03*
X49974500Y46062900D03*
X52514500Y46062900D03*
X55054500Y46062900D03*
X57594500Y46062900D03*
D14*
X38544500Y58762900D03*
X41084500Y58762900D03*
D13*
X29654500Y61302900D03*
X32194500Y61302900D03*
X34734500Y61302900D03*
X37274500Y61302900D03*
X39814500Y61302900D03*
X42354500Y61302900D03*
X44894500Y61302900D03*
X47434500Y61302900D03*
X49974500Y61302900D03*
X52514500Y61302900D03*
X55054500Y61302900D03*
X57594500Y61302900D03*
D15*
X53594000Y22179400D03*
D16*
X53594000Y25679400D03*
D15*
X83439000Y50515400D03*
D16*
X83439000Y47015400D03*
D15*
X37211000Y65486400D03*
D16*
X37211000Y68986400D03*
D17*
X77317600Y48717200D03*
D18*
X74777600Y48717200D03*
D19*
X47371000Y27711400D03*
D20*
X44831000Y27711400D03*
X42291000Y27711400D03*
X39751000Y27711400D03*
X37211000Y27711400D03*
X34671000Y27711400D03*
X32131000Y27711400D03*
X29591000Y27711400D03*
X29591000Y20091400D03*
X32131000Y20091400D03*
X34671000Y20091400D03*
X37211000Y20091400D03*
X39751000Y20091400D03*
X42291000Y20091400D03*
X44831000Y20091400D03*
X47371000Y20091400D03*
D21*
X78232000Y22504400D03*
X78232000Y19964400D03*
D22*
X64262000Y45999400D03*
D23*
X61722000Y45999400D03*
D24*
X52451000Y64541400D03*
D13*
X49911000Y64541400D03*
X47371000Y64541400D03*
X44831000Y64541400D03*
D25*
X81153000Y41808400D03*
D26*
X81153000Y39268400D03*
X81153000Y36728400D03*
X81153000Y34188400D03*
X81153000Y31648400D03*
D24*
X52578000Y68351400D03*
D13*
X50038000Y68351400D03*
X47498000Y68351400D03*
X44958000Y68351400D03*
X42418000Y68351400D03*
D21*
X39941500Y7708900D03*
X39941500Y10248900D03*
D27*
X63944500Y17995900D03*
X66484500Y17995900D03*
D28*
X27686000Y64709040D03*
X27686000Y69710300D03*
X31369000Y69453760D03*
X31369000Y64452500D03*
X62230000Y61452760D03*
X62230000Y56451500D03*
X65659000Y65770760D03*
X65659000Y60769500D03*
X65872360Y49555400D03*
X60871100Y49555400D03*
D29*
X84074000Y26949400D03*
D30*
X76454000Y26949400D03*
D29*
X38036500Y4660900D03*
D30*
X30416500Y4660900D03*
D29*
X38036500Y13423900D03*
D30*
X30416500Y13423900D03*
D29*
X60896500Y20154900D03*
D30*
X60896500Y27774900D03*
D29*
X69659500Y20154900D03*
D30*
X69659500Y27774900D03*
D29*
X50609500Y4533900D03*
D30*
X42989500Y4533900D03*
D29*
X50609500Y13296900D03*
D30*
X42989500Y13296900D03*
D29*
X60896500Y7708900D03*
D30*
X60896500Y15328900D03*
D29*
X69786500Y7962900D03*
D30*
X69786500Y15582900D03*
D31*
X78171991Y14343837D02*
X77818437Y14697391D01*
X76757777Y12929623D02*
X76404223Y13283177D01*
X75343563Y11515409D02*
X74990009Y11868963D01*
X74106126Y9924420D02*
X73399020Y10631526D01*
X79762980Y15581274D02*
X79055874Y16288380D01*
D32*
X57086500Y20091400D03*
X42291000Y25679400D03*
X34645600Y25755600D03*
X65989200Y22758400D03*
X32131000Y22186900D03*
X50609500Y43713400D03*
X48056800Y43840400D03*
X44754800Y21945600D03*
X47040800Y60045600D03*
X33629600Y68580000D03*
D33*
X69532500Y7708900D02*
X69786500Y7962900D01*
X60896500Y7708900D02*
X69532500Y7708900D01*
X76200000Y22504400D02*
X73533000Y19837400D01*
X73533000Y19837400D02*
X73533000Y13995400D01*
X73533000Y13995400D02*
X69786500Y10248900D01*
X69786500Y10248900D02*
X69786500Y7962900D01*
X78232000Y22504400D02*
X76200000Y22504400D01*
X50609500Y4533900D02*
X50609500Y13296900D01*
X50609500Y4533900D02*
X49339500Y4533900D01*
X37211000Y20091400D02*
X39751000Y20091400D01*
X39751000Y27711400D02*
X37211000Y27711400D01*
X37274500Y27774900D02*
X37211000Y27711400D01*
X37274500Y46062900D02*
X37274500Y27774900D01*
X32194500Y53555900D02*
X37274500Y48475900D01*
X37274500Y48475900D02*
X37274500Y46062900D01*
X32194500Y61302900D02*
X32194500Y53555900D01*
X32194500Y63627000D02*
X31369000Y64452500D01*
X32194500Y61302900D02*
X32194500Y63627000D01*
X36177100Y64452500D02*
X37211000Y65486400D01*
X31369000Y64452500D02*
X36177100Y64452500D01*
X78658128Y57293374D02*
X73269974Y62681528D01*
X78658128Y55296272D02*
X83439000Y50515400D01*
X78658128Y57293374D02*
X78658128Y55296272D01*
X82550000Y39268400D02*
X85090000Y41808400D01*
X85090000Y41808400D02*
X85090000Y48158400D01*
X85090000Y48158400D02*
X83439000Y49809400D01*
X83439000Y49809400D02*
X83439000Y50515400D01*
X83820000Y37998400D02*
X83820000Y30886400D01*
X83820000Y30886400D02*
X79883000Y26949400D01*
X79883000Y26949400D02*
X79883000Y24155400D01*
X79883000Y24155400D02*
X78232000Y22504400D01*
X82550000Y39268400D02*
X83820000Y37998400D01*
X81153000Y39268400D02*
X82550000Y39268400D01*
X49911000Y68224400D02*
X50038000Y68351400D01*
X49911000Y64541400D02*
X49911000Y68224400D01*
X48641000Y70383400D02*
X41275000Y70383400D01*
X41275000Y70383400D02*
X38862000Y67970400D01*
X38862000Y67970400D02*
X38862000Y67137400D01*
X38862000Y67137400D02*
X37211000Y65486400D01*
X50038000Y68986400D02*
X48641000Y70383400D01*
X50038000Y68351400D02*
X50038000Y68986400D01*
X56896000Y16535400D02*
X56896000Y11709400D01*
X53594000Y19837400D02*
X56896000Y16535400D01*
X56896000Y11709400D02*
X60896500Y7708900D01*
X53594000Y22179400D02*
X53594000Y19837400D01*
X55245000Y70383400D02*
X57531000Y68097400D01*
X57531000Y68097400D02*
X61976000Y68097400D01*
X61976000Y68097400D02*
X62357000Y67716400D01*
X62357000Y67716400D02*
X66421000Y67716400D01*
X66421000Y67716400D02*
X71455872Y62681528D01*
X71455872Y62681528D02*
X73269974Y62681528D01*
X48641000Y70383400D02*
X55245000Y70383400D01*
X50609500Y16789400D02*
X50609500Y16852900D01*
X50609500Y16852900D02*
X53594000Y19837400D01*
X50609500Y16662400D02*
X50609500Y16789400D01*
X50609500Y13296900D02*
X50609500Y16662400D01*
X64262000Y45999400D02*
X68961000Y45999400D01*
X75692000Y39268400D02*
X68961000Y45999400D01*
X81153000Y39268400D02*
X75692000Y39268400D01*
X39751000Y22682200D02*
X39725600Y22707600D01*
X39751000Y20091400D02*
X39751000Y22682200D01*
X39751000Y25577800D02*
X39725600Y25552400D01*
X39751000Y27711400D02*
X39751000Y25577800D01*
X39751000Y17449800D02*
X40284400Y16916400D01*
X40284400Y16916400D02*
X41046400Y16916400D01*
X39751000Y20091400D02*
X39751000Y17449800D01*
X47980600Y16789400D02*
X47853600Y16916400D01*
X47853600Y16916400D02*
X43484800Y16916400D01*
X50609500Y16789400D02*
X47980600Y16789400D01*
X83439000Y44094400D02*
X81153000Y41808400D01*
X83439000Y47015400D02*
X83439000Y44094400D01*
X83439000Y47015400D02*
X83439000Y47396400D01*
X52578000Y64668400D02*
X52451000Y64541400D01*
X52578000Y68351400D02*
X52578000Y64668400D01*
X67691000Y63738760D02*
X65659000Y65770760D01*
X67691000Y62382400D02*
X67691000Y63738760D01*
X67691000Y60477400D02*
X67691000Y62382400D01*
X67437000Y60223400D02*
X67691000Y60477400D01*
X67437000Y59715400D02*
X67437000Y60223400D01*
X66548000Y58826400D02*
X67437000Y59715400D01*
X66548000Y57302400D02*
X66548000Y58826400D01*
X63627000Y54381400D02*
X66548000Y57302400D01*
X39116000Y54381400D02*
X63627000Y54381400D01*
X36449000Y57048400D02*
X39116000Y54381400D01*
X36449000Y59588400D02*
X36449000Y57048400D01*
X37274500Y60413900D02*
X36449000Y59588400D01*
X37274500Y61302900D02*
X37274500Y60413900D01*
X62230000Y62341760D02*
X65659000Y65770760D01*
X62230000Y61452760D02*
X62230000Y62341760D01*
X59141360Y64541400D02*
X62230000Y61452760D01*
X52451000Y64541400D02*
X59141360Y64541400D01*
X77978000Y52730400D02*
X77978000Y53873400D01*
X77978000Y53873400D02*
X69469000Y62382400D01*
X69469000Y62382400D02*
X67691000Y62382400D01*
X83439000Y47269400D02*
X77978000Y52730400D01*
X83439000Y47015400D02*
X83439000Y47269400D01*
X70485000Y26949400D02*
X69659500Y27774900D01*
X76454000Y26949400D02*
X70485000Y26949400D01*
X69659500Y27774900D02*
X60896500Y27774900D01*
X51562000Y27711400D02*
X53594000Y25679400D01*
X47371000Y27711400D02*
X51562000Y27711400D01*
X55689500Y27774900D02*
X53594000Y25679400D01*
X60896500Y27774900D02*
X55689500Y27774900D01*
X30416500Y13423900D02*
X30416500Y4660900D01*
X29591000Y24028400D02*
X29591000Y20091400D01*
X29591000Y27711400D02*
X29591000Y24028400D01*
X47371000Y24028400D02*
X47371000Y20091400D01*
X47371000Y27711400D02*
X47371000Y24028400D01*
X47371000Y24028400D02*
X29591000Y24028400D01*
X29591000Y41300400D02*
X27559000Y43332400D01*
X27559000Y43332400D02*
X27559000Y59207400D01*
X27559000Y59207400D02*
X29654500Y61302900D01*
X29591000Y27711400D02*
X29591000Y41300400D01*
X29654500Y62740540D02*
X27686000Y64709040D01*
X29654500Y61302900D02*
X29654500Y62740540D01*
X29464000Y66700400D02*
X34925000Y66700400D01*
X34925000Y66700400D02*
X37211000Y68986400D01*
X27686000Y64922400D02*
X29464000Y66700400D01*
X27686000Y64709040D02*
X27686000Y64922400D01*
X29591000Y14757400D02*
X29591000Y20091400D01*
X30416500Y13931900D02*
X29591000Y14757400D01*
X30416500Y13423900D02*
X30416500Y13931900D01*
X57594500Y46278800D02*
X60871100Y49555400D01*
X57594500Y46062900D02*
X57594500Y46278800D01*
X77343000Y15172828D02*
X77995214Y14520614D01*
X84074000Y24663400D02*
X81915000Y22504400D01*
X81915000Y22504400D02*
X81915000Y19456400D01*
X81915000Y19456400D02*
X80391000Y17932400D01*
X80391000Y17932400D02*
X78359000Y17932400D01*
X78359000Y17932400D02*
X77343000Y16916400D01*
X77343000Y16916400D02*
X77343000Y15172828D01*
X84074000Y26949400D02*
X84074000Y24663400D01*
X63563500Y17995900D02*
X60896500Y15328900D01*
X63944500Y17995900D02*
X63563500Y17995900D01*
X63055500Y17995900D02*
X60896500Y20154900D01*
X63944500Y17995900D02*
X63055500Y17995900D01*
X57150000Y20154900D02*
X57086500Y20091400D01*
X42291000Y25679400D02*
X42291000Y27711400D01*
X60896500Y20154900D02*
X57150000Y20154900D01*
X67373500Y17995900D02*
X69786500Y15582900D01*
X66484500Y17995900D02*
X67373500Y17995900D01*
X67500500Y17995900D02*
X69659500Y20154900D01*
X66484500Y17995900D02*
X67500500Y17995900D01*
X34671000Y25781000D02*
X34645600Y25755600D01*
X34671000Y27711400D02*
X34671000Y25781000D01*
X67564000Y22758400D02*
X65989200Y22758400D01*
X69659500Y20662900D02*
X67564000Y22758400D01*
X69659500Y20154900D02*
X69659500Y20662900D01*
X39941500Y7581900D02*
X42989500Y4533900D01*
X39941500Y7708900D02*
X39941500Y7581900D01*
X39941500Y6565900D02*
X38036500Y4660900D01*
X39941500Y7708900D02*
X39941500Y6565900D01*
X34671000Y8026400D02*
X38036500Y4660900D01*
X34671000Y20091400D02*
X34671000Y8026400D01*
X42291000Y20091400D02*
X42291000Y19837400D01*
X39941500Y10248900D02*
X42989500Y13296900D01*
X39941500Y11518900D02*
X38036500Y13423900D01*
X39941500Y10248900D02*
X39941500Y11518900D01*
X42291000Y13995400D02*
X42989500Y13296900D01*
X42291000Y20091400D02*
X42291000Y13995400D01*
X55054500Y61302900D02*
X55054500Y59715400D01*
X57594500Y61302900D02*
X57594500Y59715400D01*
X50609500Y43713400D02*
X49974500Y46062900D01*
X32131000Y20091400D02*
X32131000Y22186900D01*
X47434500Y44462700D02*
X48056800Y43840400D01*
X47434500Y46062900D02*
X47434500Y44462700D01*
X44831000Y21869400D02*
X44754800Y21945600D01*
X44831000Y20091400D02*
X44831000Y21869400D01*
X52197000Y31648400D02*
X39814500Y44030900D01*
X39814500Y44030900D02*
X39814500Y46062900D01*
X81153000Y31648400D02*
X52197000Y31648400D01*
X52578000Y36728400D02*
X44894500Y44411900D01*
X44894500Y44411900D02*
X44894500Y46062900D01*
X81153000Y36728400D02*
X52578000Y36728400D01*
X42354500Y44157900D02*
X52324000Y34188400D01*
X52324000Y34188400D02*
X81153000Y34188400D01*
X42354500Y46062900D02*
X42354500Y44157900D01*
X75066026Y53701272D02*
X69677872Y59089426D01*
X52514500Y48348900D02*
X56261000Y52095400D01*
X56261000Y52095400D02*
X64643000Y52095400D01*
X64643000Y52095400D02*
X69677872Y57130272D01*
X69677872Y57130272D02*
X69677872Y59089426D01*
X52514500Y46062900D02*
X52514500Y48348900D01*
X55054500Y44157900D02*
X56007000Y43205400D01*
X56007000Y43205400D02*
X58928000Y43205400D01*
X58928000Y43205400D02*
X61722000Y45999400D01*
X55054500Y46062900D02*
X55054500Y44157900D01*
X40855900Y56451500D02*
X38544500Y58762900D01*
X48704500Y56451500D02*
X40855900Y56451500D01*
X62230000Y56451500D02*
X48704500Y56451500D01*
D34*
X48704500Y62636400D02*
X48704500Y59397900D01*
X47371000Y63969900D02*
X48704500Y62636400D01*
X47371000Y64541400D02*
X47371000Y63969900D01*
X48704500Y56451500D02*
X48704500Y57619900D01*
D33*
X41402000Y58445400D02*
X41084500Y58762900D01*
X43561000Y58445400D02*
X41402000Y58445400D01*
X63119000Y58445400D02*
X43561000Y58445400D01*
X65443100Y60769500D02*
X63119000Y58445400D01*
X65659000Y60769500D02*
X65443100Y60769500D01*
D34*
X43561000Y58572400D02*
X43561000Y58445400D01*
X43561000Y58508900D02*
X43561000Y58572400D01*
X43624500Y58445400D02*
X43561000Y58508900D01*
X43624500Y62509400D02*
X43624500Y58445400D01*
X44831000Y63715900D02*
X43624500Y62509400D01*
X44831000Y64541400D02*
X44831000Y63715900D01*
X42418000Y67081400D02*
X39814500Y64477900D01*
X39814500Y64477900D02*
X39814500Y61302900D01*
X42418000Y68351400D02*
X42418000Y67081400D01*
X42354500Y65239900D02*
X42354500Y61302900D01*
X44958000Y67843400D02*
X42354500Y65239900D01*
X44958000Y68351400D02*
X44958000Y67843400D01*
X47498000Y67144900D02*
X46101000Y65747900D01*
X46101000Y65747900D02*
X46101000Y62509400D01*
X46101000Y62509400D02*
X44894500Y61302900D01*
X47498000Y68351400D02*
X47498000Y67144900D01*
D33*
X31112460Y69710300D02*
X31369000Y69453760D01*
X27686000Y69710300D02*
X31112460Y69710300D01*
X47434500Y60439300D02*
X47040800Y60045600D01*
X47434500Y61302900D02*
X47434500Y60439300D01*
X32755840Y69453760D02*
X33629600Y68580000D01*
X31369000Y69453760D02*
X32755840Y69453760D01*
X76454000Y19964400D02*
X75565000Y19075400D01*
X75565000Y19075400D02*
X75565000Y14122400D01*
X75565000Y14122400D02*
X76581000Y13106400D01*
X78232000Y19964400D02*
X76454000Y19964400D01*
D35*
G36*
X43540257Y23043400D02*
X43369522Y22872963D01*
X43120084Y22272248D01*
X43119516Y21621805D01*
X43128496Y21600072D01*
X42835329Y21795959D01*
X42291000Y21904233D01*
X41746671Y21795959D01*
X41285211Y21487622D01*
X41021246Y21092571D01*
X41016525Y21108662D01*
X40666986Y21542591D01*
X40177996Y21809727D01*
X40098060Y21826410D01*
X39878000Y21704252D01*
X39878000Y20218400D01*
X39898000Y20218400D01*
X39898000Y19964400D01*
X39878000Y19964400D01*
X39878000Y18478548D01*
X40098060Y18356390D01*
X40177996Y18373073D01*
X40666986Y18640209D01*
X41016525Y19074138D01*
X41021246Y19090230D01*
X41285211Y18695178D01*
X41306000Y18681288D01*
X41306000Y15714720D01*
X41219120Y15714720D01*
X40976997Y15667743D01*
X40764193Y15527953D01*
X40621743Y15316920D01*
X40571680Y15067280D01*
X40571680Y12281720D01*
X40285545Y12567855D01*
X40441461Y12943341D01*
X40442296Y13900261D01*
X40076871Y14784658D01*
X39624000Y15238321D01*
X39624000Y18478548D01*
X39624000Y19964400D01*
X39624000Y20218400D01*
X39624000Y21704252D01*
X39403940Y21826410D01*
X39324004Y21809727D01*
X38835014Y21542591D01*
X38485475Y21108662D01*
X38481000Y21093411D01*
X38476525Y21108662D01*
X38126986Y21542591D01*
X37637996Y21809727D01*
X37558060Y21826410D01*
X37338000Y21704252D01*
X37338000Y20218400D01*
X38328600Y20218400D01*
X38633400Y20218400D01*
X39624000Y20218400D01*
X39624000Y19964400D01*
X38633400Y19964400D01*
X38328600Y19964400D01*
X37338000Y19964400D01*
X37338000Y18478548D01*
X37558060Y18356390D01*
X37637996Y18373073D01*
X38126986Y18640209D01*
X38476525Y19074138D01*
X38481000Y19089390D01*
X38485475Y19074138D01*
X38835014Y18640209D01*
X39324004Y18373073D01*
X39403940Y18356390D01*
X39624000Y18478548D01*
X39624000Y15238321D01*
X39400817Y15461893D01*
X38517059Y15828861D01*
X37560139Y15829696D01*
X36675742Y15464271D01*
X35998507Y14788217D01*
X35656000Y13963368D01*
X35656000Y18681288D01*
X35676789Y18695178D01*
X35940753Y19090230D01*
X35945475Y19074138D01*
X36295014Y18640209D01*
X36784004Y18373073D01*
X36863940Y18356390D01*
X37084000Y18478548D01*
X37084000Y19964400D01*
X37064000Y19964400D01*
X37064000Y20218400D01*
X37084000Y20218400D01*
X37084000Y21704252D01*
X36863940Y21826410D01*
X36784004Y21809727D01*
X36295014Y21542591D01*
X35945475Y21108662D01*
X35940753Y21092571D01*
X35676789Y21487622D01*
X35215329Y21795959D01*
X34671000Y21904233D01*
X34126671Y21795959D01*
X33665211Y21487622D01*
X33521971Y21273249D01*
X33765716Y21860252D01*
X33766284Y22510695D01*
X33546174Y23043400D01*
X43540257Y23043400D01*
X43540257Y23043400D01*
G37*
X43540257Y23043400D02*
X43369522Y22872963D01*
X43120084Y22272248D01*
X43119516Y21621805D01*
X43128496Y21600072D01*
X42835329Y21795959D01*
X42291000Y21904233D01*
X41746671Y21795959D01*
X41285211Y21487622D01*
X41021246Y21092571D01*
X41016525Y21108662D01*
X40666986Y21542591D01*
X40177996Y21809727D01*
X40098060Y21826410D01*
X39878000Y21704252D01*
X39878000Y20218400D01*
X39898000Y20218400D01*
X39898000Y19964400D01*
X39878000Y19964400D01*
X39878000Y18478548D01*
X40098060Y18356390D01*
X40177996Y18373073D01*
X40666986Y18640209D01*
X41016525Y19074138D01*
X41021246Y19090230D01*
X41285211Y18695178D01*
X41306000Y18681288D01*
X41306000Y15714720D01*
X41219120Y15714720D01*
X40976997Y15667743D01*
X40764193Y15527953D01*
X40621743Y15316920D01*
X40571680Y15067280D01*
X40571680Y12281720D01*
X40285545Y12567855D01*
X40441461Y12943341D01*
X40442296Y13900261D01*
X40076871Y14784658D01*
X39624000Y15238321D01*
X39624000Y18478548D01*
X39624000Y19964400D01*
X39624000Y20218400D01*
X39624000Y21704252D01*
X39403940Y21826410D01*
X39324004Y21809727D01*
X38835014Y21542591D01*
X38485475Y21108662D01*
X38481000Y21093411D01*
X38476525Y21108662D01*
X38126986Y21542591D01*
X37637996Y21809727D01*
X37558060Y21826410D01*
X37338000Y21704252D01*
X37338000Y20218400D01*
X38328600Y20218400D01*
X38633400Y20218400D01*
X39624000Y20218400D01*
X39624000Y19964400D01*
X38633400Y19964400D01*
X38328600Y19964400D01*
X37338000Y19964400D01*
X37338000Y18478548D01*
X37558060Y18356390D01*
X37637996Y18373073D01*
X38126986Y18640209D01*
X38476525Y19074138D01*
X38481000Y19089390D01*
X38485475Y19074138D01*
X38835014Y18640209D01*
X39324004Y18373073D01*
X39403940Y18356390D01*
X39624000Y18478548D01*
X39624000Y15238321D01*
X39400817Y15461893D01*
X38517059Y15828861D01*
X37560139Y15829696D01*
X36675742Y15464271D01*
X35998507Y14788217D01*
X35656000Y13963368D01*
X35656000Y18681288D01*
X35676789Y18695178D01*
X35940753Y19090230D01*
X35945475Y19074138D01*
X36295014Y18640209D01*
X36784004Y18373073D01*
X36863940Y18356390D01*
X37084000Y18478548D01*
X37084000Y19964400D01*
X37064000Y19964400D01*
X37064000Y20218400D01*
X37084000Y20218400D01*
X37084000Y21704252D01*
X36863940Y21826410D01*
X36784004Y21809727D01*
X36295014Y21542591D01*
X35945475Y21108662D01*
X35940753Y21092571D01*
X35676789Y21487622D01*
X35215329Y21795959D01*
X34671000Y21904233D01*
X34126671Y21795959D01*
X33665211Y21487622D01*
X33521971Y21273249D01*
X33765716Y21860252D01*
X33766284Y22510695D01*
X33546174Y23043400D01*
X43540257Y23043400D01*
G36*
X87774882Y36398201D02*
X87352441Y31030482D01*
X86479769Y27395499D01*
X86479796Y27425761D01*
X86114371Y28310158D01*
X85438317Y28987393D01*
X84736440Y29278838D01*
X84736440Y46365400D01*
X84736440Y47665400D01*
X84689463Y47907523D01*
X84549673Y48120327D01*
X84338640Y48262777D01*
X84158410Y48298921D01*
X84158410Y49616384D01*
X83439000Y50335795D01*
X83259395Y50156190D01*
X83259395Y50515400D01*
X82539984Y51234810D01*
X82309389Y51179129D01*
X82141378Y50696322D01*
X82170917Y50185972D01*
X82309389Y49851671D01*
X82539984Y49795990D01*
X83259395Y50515400D01*
X83259395Y50156190D01*
X82719590Y49616384D01*
X82775271Y49385789D01*
X83258078Y49217778D01*
X83768428Y49247317D01*
X84102729Y49385789D01*
X84158410Y49616384D01*
X84158410Y48298921D01*
X84089000Y48312840D01*
X83788560Y48312840D01*
X79961875Y52139525D01*
X79961875Y55810022D01*
X78658128Y57113769D01*
X78478523Y56934164D01*
X78478523Y57293374D01*
X77174776Y58597121D01*
X76911180Y58502307D01*
X76842632Y58389947D01*
X76669575Y57773927D01*
X76745431Y57138573D01*
X77058652Y56580610D01*
X77412206Y56227057D01*
X78478523Y57293374D01*
X78478523Y56934164D01*
X77591811Y56047452D01*
X77945364Y55693898D01*
X78503327Y55380677D01*
X79138681Y55304821D01*
X79754701Y55477878D01*
X79867061Y55546426D01*
X79961875Y55810022D01*
X79961875Y52139525D01*
X78963000Y53138400D01*
X78963000Y53873400D01*
X78888021Y54250343D01*
X78674500Y54569900D01*
X74573721Y58670679D01*
X74573721Y61198176D01*
X73269974Y62501923D01*
X73090369Y62322318D01*
X73090369Y62681528D01*
X71786622Y63985275D01*
X71523026Y63890461D01*
X71454478Y63778101D01*
X71281421Y63162081D01*
X71357277Y62526727D01*
X71670498Y61968764D01*
X72024052Y61615211D01*
X73090369Y62681528D01*
X73090369Y62322318D01*
X72203657Y61435606D01*
X72557210Y61082052D01*
X73115173Y60768831D01*
X73750527Y60692975D01*
X74366547Y60866032D01*
X74478907Y60934580D01*
X74573721Y61198176D01*
X74573721Y58670679D01*
X70165500Y63078900D01*
X69845943Y63292421D01*
X69469000Y63367400D01*
X68676000Y63367400D01*
X68676000Y63738760D01*
X68601021Y64115703D01*
X68387500Y64435260D01*
X67293280Y65529480D01*
X67293774Y66094454D01*
X67045462Y66695415D01*
X66586073Y67155606D01*
X65985547Y67404966D01*
X65335306Y67405534D01*
X64734345Y67157222D01*
X64274154Y66697833D01*
X64024794Y66097307D01*
X64024297Y65529058D01*
X61785500Y63290260D01*
X59837860Y65237900D01*
X59518303Y65451421D01*
X59141360Y65526400D01*
X53962040Y65526400D01*
X53962040Y65557400D01*
X53915063Y65799523D01*
X53775273Y66012327D01*
X53564240Y66154777D01*
X53563000Y66155026D01*
X53563000Y66711515D01*
X53683723Y66734937D01*
X53896527Y66874727D01*
X54038977Y67085760D01*
X54089040Y67335400D01*
X54089040Y69367400D01*
X54042063Y69609523D01*
X53902273Y69822327D01*
X53691240Y69964777D01*
X53441600Y70014840D01*
X51714400Y70014840D01*
X51472277Y69967863D01*
X51259473Y69828073D01*
X51117023Y69617040D01*
X51098516Y69524755D01*
X50940036Y69702132D01*
X50412791Y69956109D01*
X50397026Y69958758D01*
X50165000Y69837617D01*
X50165000Y68478400D01*
X50185000Y68478400D01*
X50185000Y68224400D01*
X50165000Y68224400D01*
X50165000Y66865183D01*
X50397026Y66744042D01*
X50412791Y66746691D01*
X50940036Y67000668D01*
X51097673Y67177102D01*
X51113937Y67093277D01*
X51253727Y66880473D01*
X51464760Y66738023D01*
X51593000Y66712306D01*
X51593000Y66204840D01*
X51587400Y66204840D01*
X51345277Y66157863D01*
X51132473Y66018073D01*
X50990023Y65807040D01*
X50971516Y65714755D01*
X50813036Y65892132D01*
X50285791Y66146109D01*
X50270026Y66148758D01*
X50038000Y66027617D01*
X50038000Y64668400D01*
X50058000Y64668400D01*
X50058000Y64414400D01*
X50038000Y64414400D01*
X50038000Y64394400D01*
X49784000Y64394400D01*
X49784000Y64414400D01*
X49764000Y64414400D01*
X49764000Y64668400D01*
X49784000Y64668400D01*
X49784000Y66027617D01*
X49551974Y66148758D01*
X49536209Y66146109D01*
X49008964Y65892132D01*
X48637460Y65476331D01*
X48430670Y65785815D01*
X47944489Y66110671D01*
X47694387Y66160420D01*
X48088434Y66554466D01*
X48269439Y66825359D01*
X48269439Y66825360D01*
X48289864Y66928043D01*
X48557670Y67106985D01*
X48764460Y67416470D01*
X49135964Y67000668D01*
X49663209Y66746691D01*
X49678974Y66744042D01*
X49911000Y66865183D01*
X49911000Y68224400D01*
X49891000Y68224400D01*
X49891000Y68478400D01*
X49911000Y68478400D01*
X49911000Y69837617D01*
X49678974Y69958758D01*
X49663209Y69956109D01*
X49135964Y69702132D01*
X48764460Y69286331D01*
X48557670Y69595815D01*
X48071489Y69920671D01*
X47498000Y70034745D01*
X46924511Y69920671D01*
X46438330Y69595815D01*
X46228000Y69281035D01*
X46017670Y69595815D01*
X45531489Y69920671D01*
X44958000Y70034745D01*
X44384511Y69920671D01*
X43898330Y69595815D01*
X43688000Y69281035D01*
X43477670Y69595815D01*
X42991489Y69920671D01*
X42418000Y70034745D01*
X41844511Y69920671D01*
X41358330Y69595815D01*
X41033474Y69109634D01*
X40919400Y68536145D01*
X40919400Y68166655D01*
X41033474Y67593166D01*
X41320032Y67164301D01*
X39224066Y65068334D01*
X39043061Y64797441D01*
X38979500Y64477900D01*
X38979500Y62697435D01*
X38754830Y62547315D01*
X38544500Y62232535D01*
X38508622Y62286231D01*
X38508622Y65305478D01*
X38479083Y65815828D01*
X38340611Y66150129D01*
X38110016Y66205810D01*
X37930410Y66026205D01*
X37930410Y66385416D01*
X37874729Y66616011D01*
X37391922Y66784022D01*
X36881572Y66754483D01*
X36547271Y66616011D01*
X36491590Y66385416D01*
X37211000Y65666005D01*
X37930410Y66385416D01*
X37930410Y66026205D01*
X37390605Y65486400D01*
X38110016Y64766990D01*
X38340611Y64822671D01*
X38508622Y65305478D01*
X38508622Y62286231D01*
X38334170Y62547315D01*
X37930410Y62817100D01*
X37930410Y64587384D01*
X37211000Y65306795D01*
X37031395Y65127190D01*
X37031395Y65486400D01*
X36311984Y66205810D01*
X36081389Y66150129D01*
X35913378Y65667322D01*
X35942917Y65156972D01*
X36081389Y64822671D01*
X36311984Y64766990D01*
X37031395Y65486400D01*
X37031395Y65127190D01*
X36491590Y64587384D01*
X36547271Y64356789D01*
X37030078Y64188778D01*
X37540428Y64218317D01*
X37874729Y64356789D01*
X37930410Y64587384D01*
X37930410Y62817100D01*
X37847989Y62872171D01*
X37274500Y62986245D01*
X36701011Y62872171D01*
X36214830Y62547315D01*
X36004500Y62232535D01*
X35794170Y62547315D01*
X35307989Y62872171D01*
X34734500Y62986245D01*
X34161011Y62872171D01*
X33674830Y62547315D01*
X33468039Y62237831D01*
X33096536Y62653632D01*
X33014401Y62693197D01*
X33014401Y64188082D01*
X32990341Y64837877D01*
X32787965Y65326458D01*
X32521163Y65425057D01*
X31548605Y64452500D01*
X32521163Y63479943D01*
X32787965Y63578542D01*
X33014401Y64188082D01*
X33014401Y62693197D01*
X32569291Y62907609D01*
X32553526Y62910258D01*
X32321500Y62789117D01*
X32321500Y61429900D01*
X32341500Y61429900D01*
X32341500Y61175900D01*
X32321500Y61175900D01*
X32321500Y59816683D01*
X32553526Y59695542D01*
X32569291Y59698191D01*
X33096536Y59952168D01*
X33468039Y60367970D01*
X33674830Y60058485D01*
X34161011Y59733629D01*
X34734500Y59619555D01*
X35307989Y59733629D01*
X35521229Y59876113D01*
X35464000Y59588400D01*
X35464000Y57048400D01*
X35538979Y56671457D01*
X35752500Y56351900D01*
X38419500Y53684900D01*
X38739057Y53471379D01*
X39116000Y53396400D01*
X63627000Y53396400D01*
X64003943Y53471379D01*
X64323500Y53684900D01*
X67244500Y56605900D01*
X67458021Y56925457D01*
X67533000Y57302400D01*
X67533000Y58418400D01*
X67855202Y58740603D01*
X68138622Y58316436D01*
X68692872Y57762187D01*
X68692872Y57538272D01*
X64235000Y53080400D01*
X56261000Y53080400D01*
X55884057Y53005421D01*
X55564500Y52791900D01*
X51818000Y49045400D01*
X51604479Y48725843D01*
X51529500Y48348900D01*
X51529500Y47357208D01*
X51454830Y47307315D01*
X51244500Y46992535D01*
X51034170Y47307315D01*
X50547989Y47632171D01*
X49974500Y47746245D01*
X49401011Y47632171D01*
X48914830Y47307315D01*
X48704500Y46992535D01*
X48494170Y47307315D01*
X48007989Y47632171D01*
X47434500Y47746245D01*
X46861011Y47632171D01*
X46374830Y47307315D01*
X46164500Y46992535D01*
X45954170Y47307315D01*
X45467989Y47632171D01*
X44894500Y47746245D01*
X44321011Y47632171D01*
X43834830Y47307315D01*
X43624500Y46992535D01*
X43414170Y47307315D01*
X42927989Y47632171D01*
X42354500Y47746245D01*
X41781011Y47632171D01*
X41294830Y47307315D01*
X41084500Y46992535D01*
X40874170Y47307315D01*
X40387989Y47632171D01*
X39814500Y47746245D01*
X39241011Y47632171D01*
X38754830Y47307315D01*
X38548039Y46997831D01*
X38176536Y47413632D01*
X37649291Y47667609D01*
X37633526Y47670258D01*
X37401500Y47549117D01*
X37401500Y46189900D01*
X37421500Y46189900D01*
X37421500Y45935900D01*
X37401500Y45935900D01*
X37401500Y44576683D01*
X37633526Y44455542D01*
X37649291Y44458191D01*
X38176536Y44712168D01*
X38548039Y45127970D01*
X38754830Y44818485D01*
X38829500Y44768593D01*
X38829500Y44030900D01*
X38904479Y43653957D01*
X39118000Y43334400D01*
X51500500Y30951900D01*
X51820057Y30738379D01*
X52197000Y30663400D01*
X79858692Y30663400D01*
X79908585Y30588730D01*
X80394766Y30263874D01*
X80968255Y30149800D01*
X81337745Y30149800D01*
X81911234Y30263874D01*
X82397415Y30588730D01*
X82722271Y31074911D01*
X82836345Y31648400D01*
X82722271Y32221889D01*
X82397415Y32708070D01*
X82082634Y32918400D01*
X82397415Y33128730D01*
X82722271Y33614911D01*
X82836345Y34188400D01*
X82722271Y34761889D01*
X82397415Y35248070D01*
X82082634Y35458400D01*
X82397415Y35668730D01*
X82722271Y36154911D01*
X82836345Y36728400D01*
X82722271Y37301889D01*
X82397415Y37788070D01*
X82087930Y37994861D01*
X82503732Y38366364D01*
X82757709Y38893609D01*
X82760358Y38909374D01*
X82639217Y39141400D01*
X81280000Y39141400D01*
X81280000Y39121400D01*
X81026000Y39121400D01*
X81026000Y39141400D01*
X79666783Y39141400D01*
X79545642Y38909374D01*
X79548291Y38893609D01*
X79802268Y38366364D01*
X80218069Y37994861D01*
X79908585Y37788070D01*
X79858692Y37713400D01*
X78902600Y37713400D01*
X78902600Y47590891D01*
X78902600Y48431450D01*
X78902600Y49002950D01*
X78902600Y49843509D01*
X78805927Y50076898D01*
X78627299Y50255527D01*
X78393910Y50352200D01*
X78141291Y50352200D01*
X77603350Y50352200D01*
X77444600Y50193450D01*
X77444600Y48844200D01*
X78743850Y48844200D01*
X78902600Y49002950D01*
X78902600Y48431450D01*
X78743850Y48590200D01*
X77444600Y48590200D01*
X77444600Y47240950D01*
X77603350Y47082200D01*
X78141291Y47082200D01*
X78393910Y47082200D01*
X78627299Y47178873D01*
X78805927Y47357502D01*
X78902600Y47590891D01*
X78902600Y37713400D01*
X77190600Y37713400D01*
X77190600Y47240950D01*
X77190600Y48590200D01*
X77170600Y48590200D01*
X77170600Y48844200D01*
X77190600Y48844200D01*
X77190600Y50193450D01*
X77031850Y50352200D01*
X76493909Y50352200D01*
X76241290Y50352200D01*
X76007901Y50255527D01*
X75829273Y50076898D01*
X75779588Y49956949D01*
X75676603Y50060114D01*
X75094259Y50301924D01*
X74463707Y50302475D01*
X73880943Y50061681D01*
X73434686Y49616203D01*
X73192876Y49033859D01*
X73192325Y48403307D01*
X73433119Y47820543D01*
X73878597Y47374286D01*
X74460941Y47132476D01*
X75091493Y47131925D01*
X75674257Y47372719D01*
X75779466Y47477746D01*
X75829273Y47357502D01*
X76007901Y47178873D01*
X76241290Y47082200D01*
X76493909Y47082200D01*
X77031850Y47082200D01*
X77190600Y47240950D01*
X77190600Y37713400D01*
X72719075Y37713400D01*
X72719075Y49580120D01*
X70662800Y51636395D01*
X70483195Y51456790D01*
X70483195Y51816000D01*
X68426920Y53872275D01*
X68004236Y53590579D01*
X67527506Y52438108D01*
X67528095Y51190928D01*
X68004236Y50041421D01*
X68426920Y49759725D01*
X70483195Y51816000D01*
X70483195Y51456790D01*
X68606525Y49580120D01*
X68888221Y49157436D01*
X70040692Y48680706D01*
X71287872Y48681295D01*
X72437379Y49157436D01*
X72719075Y49580120D01*
X72719075Y37713400D01*
X67507134Y37713400D01*
X67507134Y49879094D01*
X67258822Y50480055D01*
X66799433Y50940246D01*
X66198907Y51189606D01*
X65548666Y51190174D01*
X64947705Y50941862D01*
X64487514Y50482473D01*
X64238154Y49881947D01*
X64237586Y49231706D01*
X64485898Y48630745D01*
X64945287Y48170554D01*
X65545813Y47921194D01*
X66196054Y47920626D01*
X66797015Y48168938D01*
X67257206Y48628327D01*
X67506566Y49228853D01*
X67507134Y49879094D01*
X67507134Y37713400D01*
X65913000Y37713400D01*
X65913000Y44857091D01*
X65913000Y45713650D01*
X65913000Y46285150D01*
X65913000Y47141709D01*
X65816327Y47375098D01*
X65637699Y47553727D01*
X65404310Y47650400D01*
X65151691Y47650400D01*
X64547750Y47650400D01*
X64389000Y47491650D01*
X64389000Y46126400D01*
X65754250Y46126400D01*
X65913000Y46285150D01*
X65913000Y45713650D01*
X65754250Y45872400D01*
X64389000Y45872400D01*
X64389000Y44507150D01*
X64547750Y44348400D01*
X65151691Y44348400D01*
X65404310Y44348400D01*
X65637699Y44445073D01*
X65816327Y44623702D01*
X65913000Y44857091D01*
X65913000Y37713400D01*
X52986000Y37713400D01*
X48461043Y42238357D01*
X48981743Y42453506D01*
X49269860Y42741121D01*
X49682137Y42328122D01*
X50282852Y42078684D01*
X50933295Y42078116D01*
X51534443Y42326506D01*
X51994778Y42786037D01*
X52244216Y43386752D01*
X52244784Y44037195D01*
X52066502Y44468668D01*
X52514500Y44379555D01*
X53087989Y44493629D01*
X53574170Y44818485D01*
X53784500Y45133266D01*
X53994830Y44818485D01*
X54069500Y44768593D01*
X54069500Y44157900D01*
X54144479Y43780957D01*
X54358000Y43461400D01*
X55310500Y42508900D01*
X55630057Y42295379D01*
X56007000Y42220400D01*
X58928000Y42220400D01*
X59304943Y42295379D01*
X59624500Y42508900D01*
X61479826Y44364227D01*
X61722000Y44316055D01*
X62353810Y44441730D01*
X62690001Y44666366D01*
X62707673Y44623702D01*
X62886301Y44445073D01*
X63119690Y44348400D01*
X63372309Y44348400D01*
X63976250Y44348400D01*
X64135000Y44507150D01*
X64135000Y45872400D01*
X64115000Y45872400D01*
X64115000Y46126400D01*
X64135000Y46126400D01*
X64135000Y47491650D01*
X63976250Y47650400D01*
X63372309Y47650400D01*
X63119690Y47650400D01*
X62886301Y47553727D01*
X62707673Y47375098D01*
X62690001Y47332435D01*
X62353810Y47557070D01*
X61722000Y47682745D01*
X61090190Y47557070D01*
X60554567Y47199178D01*
X60196675Y46663555D01*
X60071000Y46031745D01*
X60071000Y45967055D01*
X60108438Y45778839D01*
X58520000Y44190400D01*
X56415000Y44190400D01*
X56039500Y44565900D01*
X56039500Y44768593D01*
X56114170Y44818485D01*
X56324500Y45133266D01*
X56534830Y44818485D01*
X57021011Y44493629D01*
X57594500Y44379555D01*
X58167989Y44493629D01*
X58654170Y44818485D01*
X58979026Y45304666D01*
X59093100Y45878155D01*
X59093100Y46247645D01*
X59070410Y46361711D01*
X60629819Y47921120D01*
X61194794Y47920626D01*
X61795755Y48168938D01*
X62255946Y48628327D01*
X62505306Y49228853D01*
X62505874Y49879094D01*
X62257562Y50480055D01*
X61798173Y50940246D01*
X61388396Y51110400D01*
X64643000Y51110400D01*
X65019943Y51185379D01*
X65339500Y51398900D01*
X70374372Y56433772D01*
X70587893Y56753329D01*
X70593380Y56780918D01*
X73088045Y54286252D01*
X73047895Y54084402D01*
X73119342Y53725216D01*
X72898680Y53872275D01*
X72719075Y53692670D01*
X72719075Y54051880D01*
X72437379Y54474564D01*
X71284908Y54951294D01*
X70037728Y54950705D01*
X68888221Y54474564D01*
X68606525Y54051880D01*
X70662800Y51995605D01*
X72719075Y54051880D01*
X72719075Y53692670D01*
X70842405Y51816000D01*
X72898680Y49759725D01*
X73321364Y50041421D01*
X73798094Y51193892D01*
X73797505Y52441072D01*
X73644429Y52810629D01*
X74293036Y52162023D01*
X74823468Y51807599D01*
X75449156Y51683142D01*
X76074843Y51807599D01*
X76605275Y52162023D01*
X76959699Y52692455D01*
X76993000Y52859871D01*
X76993000Y52730400D01*
X77067979Y52353457D01*
X77281500Y52033900D01*
X82141560Y47173840D01*
X82141560Y46365400D01*
X82188537Y46123277D01*
X82328327Y45910473D01*
X82454000Y45825643D01*
X82454000Y44502400D01*
X81271040Y43319440D01*
X80137000Y43319440D01*
X79894877Y43272463D01*
X79682073Y43132673D01*
X79539623Y42921640D01*
X79489560Y42672000D01*
X79489560Y40944800D01*
X79536537Y40702677D01*
X79676327Y40489873D01*
X79887360Y40347423D01*
X79979645Y40328917D01*
X79802268Y40170436D01*
X79548291Y39643191D01*
X79545642Y39627426D01*
X79666783Y39395400D01*
X81026000Y39395400D01*
X81026000Y39415400D01*
X81280000Y39415400D01*
X81280000Y39395400D01*
X82639217Y39395400D01*
X82760358Y39627426D01*
X82757709Y39643191D01*
X82503732Y40170436D01*
X82327298Y40328074D01*
X82411123Y40344337D01*
X82623927Y40484127D01*
X82766377Y40695160D01*
X82816440Y40944800D01*
X82816440Y42078840D01*
X84135500Y43397900D01*
X84349021Y43717457D01*
X84424000Y44094400D01*
X84424000Y45825948D01*
X84543927Y45904727D01*
X84686377Y46115760D01*
X84736440Y46365400D01*
X84736440Y29278838D01*
X84554559Y29354361D01*
X83597639Y29355196D01*
X82713242Y28989771D01*
X82036007Y28313717D01*
X81669039Y27429959D01*
X81668204Y26473039D01*
X82033629Y25588642D01*
X82709683Y24911407D01*
X82864656Y24847057D01*
X81218500Y23200900D01*
X81004979Y22881343D01*
X80930000Y22504400D01*
X80930000Y19864401D01*
X79982999Y18917400D01*
X79911931Y18917400D01*
X80009896Y18982858D01*
X80310800Y19433193D01*
X80416464Y19964400D01*
X80310800Y20495607D01*
X80009896Y20945942D01*
X79559561Y21246846D01*
X79556694Y21247417D01*
X79634919Y21270554D01*
X80057724Y21612660D01*
X80317427Y22090525D01*
X80331783Y22162726D01*
X80331783Y22846074D01*
X80317427Y22918275D01*
X80057724Y23396140D01*
X79634919Y23738246D01*
X79113380Y23892510D01*
X78359000Y23892510D01*
X78359000Y22631400D01*
X80209162Y22631400D01*
X80331783Y22846074D01*
X80331783Y22162726D01*
X80209162Y22377400D01*
X78359000Y22377400D01*
X78359000Y22357400D01*
X78105000Y22357400D01*
X78105000Y22377400D01*
X78105000Y22631400D01*
X78105000Y23892510D01*
X77350620Y23892510D01*
X76829081Y23738246D01*
X76406276Y23396140D01*
X76146573Y22918275D01*
X76132217Y22846074D01*
X76254838Y22631400D01*
X78105000Y22631400D01*
X78105000Y22377400D01*
X76254838Y22377400D01*
X76132217Y22162726D01*
X76146573Y22090525D01*
X76406276Y21612660D01*
X76829081Y21270554D01*
X76907305Y21247417D01*
X76904439Y21246846D01*
X76459279Y20949400D01*
X76454000Y20949400D01*
X76077057Y20874421D01*
X75757500Y20660900D01*
X74868500Y19771900D01*
X74654979Y19452343D01*
X74580000Y19075400D01*
X74580000Y14122400D01*
X74654979Y13745457D01*
X74868500Y13425900D01*
X74998559Y13295841D01*
X75003826Y13269360D01*
X74967359Y13276613D01*
X74437343Y13171186D01*
X73988016Y12870956D01*
X73687786Y12421629D01*
X73603284Y11996814D01*
X73372907Y12042639D01*
X72842891Y11937212D01*
X72393564Y11636982D01*
X72204320Y11353758D01*
X72204320Y13812520D01*
X72204320Y17353280D01*
X72157343Y17595403D01*
X72017553Y17808207D01*
X71806520Y17950657D01*
X71556880Y18000720D01*
X70744818Y18000720D01*
X71020258Y18114529D01*
X71697493Y18790583D01*
X72064461Y19674341D01*
X72065296Y20631261D01*
X71699871Y21515658D01*
X71023817Y22192893D01*
X70140059Y22559861D01*
X69183139Y22560696D01*
X69163018Y22552383D01*
X68260500Y23454900D01*
X67940943Y23668421D01*
X67564000Y23743400D01*
X67316141Y23743400D01*
X66916563Y24143678D01*
X66315848Y24393116D01*
X65665405Y24393684D01*
X65064257Y24145294D01*
X64603922Y23685763D01*
X64354484Y23085048D01*
X64353916Y22434605D01*
X64602306Y21833457D01*
X65061837Y21373122D01*
X65662552Y21123684D01*
X66312995Y21123116D01*
X66914143Y21371506D01*
X67236299Y21693101D01*
X67559503Y21369897D01*
X67254539Y20635459D01*
X67253910Y19915538D01*
X67015707Y20074700D01*
X66484500Y20180364D01*
X65953293Y20074700D01*
X65502958Y19773796D01*
X65214500Y19342088D01*
X64926042Y19773796D01*
X64475707Y20074700D01*
X63944500Y20180364D01*
X63413293Y20074700D01*
X63301745Y20000167D01*
X63302296Y20631261D01*
X62936871Y21515658D01*
X62260817Y22192893D01*
X61377059Y22559861D01*
X60420139Y22560696D01*
X59535742Y22195271D01*
X58858507Y21519217D01*
X58701000Y21139900D01*
X58350052Y21139900D01*
X58013863Y21476678D01*
X57413148Y21726116D01*
X56762705Y21726684D01*
X56161557Y21478294D01*
X55701222Y21018763D01*
X55451784Y20418048D01*
X55451216Y19767605D01*
X55699606Y19166457D01*
X56159137Y18706122D01*
X56759852Y18456684D01*
X57410295Y18456116D01*
X58011443Y18704506D01*
X58471778Y19164037D01*
X58474212Y19169900D01*
X58700869Y19169900D01*
X58856129Y18794142D01*
X59532183Y18116907D01*
X60415941Y17749939D01*
X61372861Y17749104D01*
X61752452Y17905948D01*
X61911680Y17746720D01*
X59126120Y17746720D01*
X58883997Y17699743D01*
X58671193Y17559953D01*
X58528743Y17348920D01*
X58478680Y17099280D01*
X58478680Y13558520D01*
X58525657Y13316397D01*
X58665447Y13103593D01*
X58876480Y12961143D01*
X59126120Y12911080D01*
X62666880Y12911080D01*
X62909003Y12958057D01*
X63121807Y13097847D01*
X63264257Y13308880D01*
X63314320Y13558520D01*
X63314320Y15983232D01*
X63413293Y15917100D01*
X63944500Y15811436D01*
X64475707Y15917100D01*
X64926042Y16218004D01*
X65214500Y16649713D01*
X65502958Y16218004D01*
X65953293Y15917100D01*
X66484500Y15811436D01*
X67015707Y15917100D01*
X67368680Y16152949D01*
X67368680Y13812520D01*
X67415657Y13570397D01*
X67555447Y13357593D01*
X67766480Y13215143D01*
X68016120Y13165080D01*
X71556880Y13165080D01*
X71799003Y13212057D01*
X72011807Y13351847D01*
X72154257Y13562880D01*
X72204320Y13812520D01*
X72204320Y11353758D01*
X72093334Y11187655D01*
X71987907Y10657639D01*
X72093334Y10127623D01*
X72393564Y9678296D01*
X73152896Y8918964D01*
X73600384Y8619962D01*
X72194632Y7758523D01*
X72185693Y8471477D01*
X71842605Y9299767D01*
X71495743Y9492538D01*
X71316138Y9312933D01*
X71316138Y9672143D01*
X71123367Y10019005D01*
X70234767Y10374090D01*
X69277923Y10362093D01*
X68449633Y10019005D01*
X68256862Y9672143D01*
X69786500Y8142505D01*
X71316138Y9672143D01*
X71316138Y9312933D01*
X69966105Y7962900D01*
X69980247Y7948758D01*
X69800642Y7769153D01*
X69786500Y7783295D01*
X69606895Y7603690D01*
X69606895Y7962900D01*
X68077257Y9492538D01*
X67730395Y9299767D01*
X67375310Y8411167D01*
X67387307Y7454323D01*
X67730395Y6626033D01*
X68077257Y6433262D01*
X69606895Y7962900D01*
X69606895Y7603690D01*
X68256862Y6253657D01*
X68449633Y5906795D01*
X68850223Y5746719D01*
X64065267Y3764689D01*
X63307690Y3582814D01*
X63307690Y7260633D01*
X63295693Y8217477D01*
X62952605Y9045767D01*
X62605743Y9238538D01*
X62426138Y9058933D01*
X62426138Y9418143D01*
X62233367Y9765005D01*
X61344767Y10120090D01*
X60387923Y10108093D01*
X59559633Y9765005D01*
X59366862Y9418143D01*
X60896500Y7888505D01*
X62426138Y9418143D01*
X62426138Y9058933D01*
X61076105Y7708900D01*
X62605743Y6179262D01*
X62952605Y6372033D01*
X63307690Y7260633D01*
X63307690Y3582814D01*
X62426138Y3371175D01*
X62426138Y5999657D01*
X60896500Y7529295D01*
X60716895Y7349690D01*
X60716895Y7708900D01*
X59187257Y9238538D01*
X58840395Y9045767D01*
X58485310Y8157167D01*
X58497307Y7200323D01*
X58840395Y6372033D01*
X59187257Y6179262D01*
X60716895Y7708900D01*
X60716895Y7349690D01*
X59366862Y5999657D01*
X59559633Y5652795D01*
X60448233Y5297710D01*
X61405077Y5309707D01*
X62233367Y5652795D01*
X62426138Y5999657D01*
X62426138Y3371175D01*
X58829708Y2507759D01*
X58202494Y2458397D01*
X58202494Y7505892D01*
X58201905Y8753072D01*
X57725764Y9902579D01*
X57303080Y10184275D01*
X57123475Y10004670D01*
X57123475Y10363880D01*
X56841779Y10786564D01*
X55689308Y11263294D01*
X54891622Y11262918D01*
X54891622Y21998478D01*
X54862083Y22508828D01*
X54723611Y22843129D01*
X54493016Y22898810D01*
X54313410Y22719205D01*
X54313410Y23078416D01*
X54257729Y23309011D01*
X53774922Y23477022D01*
X53264572Y23447483D01*
X52930271Y23309011D01*
X52874590Y23078416D01*
X53594000Y22359005D01*
X54313410Y23078416D01*
X54313410Y22719205D01*
X53773605Y22179400D01*
X54493016Y21459990D01*
X54723611Y21515671D01*
X54891622Y21998478D01*
X54891622Y11262918D01*
X54442128Y11262705D01*
X54313410Y11209389D01*
X54313410Y21280384D01*
X53594000Y21999795D01*
X53414395Y21820190D01*
X53414395Y22179400D01*
X52694984Y22898810D01*
X52464389Y22843129D01*
X52296378Y22360322D01*
X52325917Y21849972D01*
X52464389Y21515671D01*
X52694984Y21459990D01*
X53414395Y22179400D01*
X53414395Y21820190D01*
X52874590Y21280384D01*
X52930271Y21049789D01*
X53413078Y20881778D01*
X53923428Y20911317D01*
X54257729Y21049789D01*
X54313410Y21280384D01*
X54313410Y11209389D01*
X53292621Y10786564D01*
X53020690Y10378533D01*
X53020690Y12848633D01*
X53008693Y13805477D01*
X52665605Y14633767D01*
X52318743Y14826538D01*
X52139138Y14646933D01*
X52139138Y15006143D01*
X51946367Y15353005D01*
X51057767Y15708090D01*
X50100923Y15696093D01*
X49272633Y15353005D01*
X49079862Y15006143D01*
X50609500Y13476505D01*
X52139138Y15006143D01*
X52139138Y14646933D01*
X50789105Y13296900D01*
X52318743Y11767262D01*
X52665605Y11960033D01*
X53020690Y12848633D01*
X53020690Y10378533D01*
X53010925Y10363880D01*
X55067200Y8307605D01*
X57123475Y10363880D01*
X57123475Y10004670D01*
X55246805Y8128000D01*
X57303080Y6071725D01*
X57725764Y6353421D01*
X58202494Y7505892D01*
X58202494Y2458397D01*
X57123475Y2373478D01*
X57123475Y5892120D01*
X55067200Y7948395D01*
X54887595Y7768790D01*
X54887595Y8128000D01*
X52831320Y10184275D01*
X52408636Y9902579D01*
X52139138Y9251082D01*
X52139138Y11587657D01*
X50609500Y13117295D01*
X50429895Y12937690D01*
X50429895Y13296900D01*
X48900257Y14826538D01*
X48553395Y14633767D01*
X48198310Y13745167D01*
X48210307Y12788323D01*
X48553395Y11960033D01*
X48900257Y11767262D01*
X50429895Y13296900D01*
X50429895Y12937690D01*
X49079862Y11587657D01*
X49272633Y11240795D01*
X50161233Y10885710D01*
X51118077Y10897707D01*
X51946367Y11240795D01*
X52139138Y11587657D01*
X52139138Y9251082D01*
X51931906Y8750108D01*
X51932495Y7502928D01*
X52408636Y6353421D01*
X52831320Y6071725D01*
X54887595Y8128000D01*
X54887595Y7768790D01*
X53010925Y5892120D01*
X53292621Y5469436D01*
X54445092Y4992706D01*
X55692272Y4993295D01*
X56841779Y5469436D01*
X57123475Y5892120D01*
X57123475Y2373478D01*
X53435091Y2083200D01*
X53020690Y2083200D01*
X53020690Y4085633D01*
X53008693Y5042477D01*
X52665605Y5870767D01*
X52318743Y6063538D01*
X52139138Y5883933D01*
X52139138Y6243143D01*
X51946367Y6590005D01*
X51057767Y6945090D01*
X50100923Y6933093D01*
X49272633Y6590005D01*
X49079862Y6243143D01*
X50609500Y4713505D01*
X52139138Y6243143D01*
X52139138Y5883933D01*
X50789105Y4533900D01*
X52318743Y3004262D01*
X52665605Y3197033D01*
X53020690Y4085633D01*
X53020690Y2083200D01*
X52139138Y2083200D01*
X52139138Y2824657D01*
X50609500Y4354295D01*
X50429895Y4174690D01*
X50429895Y4533900D01*
X48900257Y6063538D01*
X48553395Y5870767D01*
X48198310Y4982167D01*
X48210307Y4025323D01*
X48553395Y3197033D01*
X48900257Y3004262D01*
X50429895Y4533900D01*
X50429895Y4174690D01*
X49079862Y2824657D01*
X49272633Y2477795D01*
X50161233Y2122710D01*
X51118077Y2134707D01*
X51946367Y2477795D01*
X52139138Y2824657D01*
X52139138Y2083200D01*
X26097000Y2083200D01*
X26097000Y28898200D01*
X26044857Y29160338D01*
X25896368Y29382568D01*
X25674138Y29531057D01*
X25412000Y29583200D01*
X18462000Y29583200D01*
X18199862Y29531057D01*
X17977632Y29382568D01*
X17829143Y29160338D01*
X17777000Y28898200D01*
X17777000Y19583200D01*
X9147000Y19583200D01*
X9147000Y28898200D01*
X9131243Y28977413D01*
X9128073Y29058109D01*
X9105415Y29107258D01*
X9094857Y29160338D01*
X9049988Y29227489D01*
X9016177Y29300832D01*
X8976435Y29337569D01*
X8946368Y29382568D01*
X8879217Y29427437D01*
X8819912Y29482258D01*
X8769136Y29500991D01*
X8724138Y29531057D01*
X8644929Y29546813D01*
X8569159Y29574766D01*
X8215294Y29630814D01*
X8215294Y35598292D01*
X8214705Y36845472D01*
X7738564Y37994979D01*
X7315880Y38276675D01*
X7136275Y38097070D01*
X7136275Y38456280D01*
X6854579Y38878964D01*
X5702108Y39355694D01*
X4454928Y39355105D01*
X3305421Y38878964D01*
X3023725Y38456280D01*
X5080000Y36400005D01*
X7136275Y38456280D01*
X7136275Y38097070D01*
X5259605Y36220400D01*
X7315880Y34164125D01*
X7738564Y34445821D01*
X8215294Y35598292D01*
X8215294Y29630814D01*
X7136275Y29801715D01*
X7136275Y33984520D01*
X5080000Y36040795D01*
X4900395Y35861190D01*
X4900395Y36220400D01*
X2844120Y38276675D01*
X2421436Y37994979D01*
X1944706Y36842508D01*
X1945295Y35595328D01*
X2421436Y34445821D01*
X2844120Y34164125D01*
X4900395Y36220400D01*
X4900395Y35861190D01*
X3023725Y33984520D01*
X3305421Y33561836D01*
X4457892Y33085106D01*
X5705072Y33085695D01*
X6854579Y33561836D01*
X7136275Y33984520D01*
X7136275Y29801715D01*
X6358685Y29924874D01*
X4461264Y30891654D01*
X2955484Y32397462D01*
X1988692Y34294891D01*
X1655539Y36398201D01*
X1988692Y38501510D01*
X2955484Y40398939D01*
X4461264Y41904747D01*
X6358685Y42871527D01*
X8569159Y43221634D01*
X8644929Y43249588D01*
X8724138Y43265343D01*
X8769136Y43295410D01*
X8819912Y43314142D01*
X8879217Y43368964D01*
X8946368Y43413832D01*
X8976435Y43458832D01*
X9016177Y43495568D01*
X9049988Y43568912D01*
X9094857Y43636062D01*
X9105415Y43689143D01*
X9128073Y43738291D01*
X9131243Y43818988D01*
X9147000Y43898200D01*
X9147000Y53213200D01*
X17777000Y53213200D01*
X17777000Y43898200D01*
X17829143Y43636062D01*
X17977632Y43413832D01*
X18199862Y43265343D01*
X18462000Y43213200D01*
X25412000Y43213200D01*
X25674138Y43265343D01*
X25896368Y43413832D01*
X26044857Y43636062D01*
X26097000Y43898200D01*
X26097000Y64274565D01*
X26299538Y63784385D01*
X26758927Y63324194D01*
X27359453Y63074834D01*
X27927702Y63074338D01*
X28538711Y62463329D01*
X28269974Y62061134D01*
X28155900Y61487645D01*
X28155900Y61197301D01*
X26862500Y59903900D01*
X26648979Y59584343D01*
X26574000Y59207400D01*
X26574000Y43332400D01*
X26648979Y42955457D01*
X26862500Y42635900D01*
X28606000Y40892400D01*
X28606000Y29121513D01*
X28585211Y29107622D01*
X28276874Y28646162D01*
X28168600Y28101833D01*
X28168600Y27320967D01*
X28276874Y26776638D01*
X28585211Y26315178D01*
X28606000Y26301288D01*
X28606000Y24028400D01*
X28606000Y21501513D01*
X28585211Y21487622D01*
X28276874Y21026162D01*
X28168600Y20481833D01*
X28168600Y19700967D01*
X28276874Y19156638D01*
X28585211Y18695178D01*
X28606000Y18681288D01*
X28606000Y15833936D01*
X28403997Y15794743D01*
X28191193Y15654953D01*
X28048743Y15443920D01*
X27998680Y15194280D01*
X27998680Y11653520D01*
X28045657Y11411397D01*
X28185447Y11198593D01*
X28396480Y11056143D01*
X28646120Y11006080D01*
X29431500Y11006080D01*
X29431500Y7078720D01*
X28646120Y7078720D01*
X28403997Y7031743D01*
X28191193Y6891953D01*
X28048743Y6680920D01*
X27998680Y6431280D01*
X27998680Y2890520D01*
X28045657Y2648397D01*
X28185447Y2435593D01*
X28396480Y2293143D01*
X28646120Y2243080D01*
X32186880Y2243080D01*
X32429003Y2290057D01*
X32641807Y2429847D01*
X32784257Y2640880D01*
X32834320Y2890520D01*
X32834320Y6431280D01*
X32787343Y6673403D01*
X32647553Y6886207D01*
X32436520Y7028657D01*
X32186880Y7078720D01*
X31401500Y7078720D01*
X31401500Y11006080D01*
X32186880Y11006080D01*
X32429003Y11053057D01*
X32641807Y11192847D01*
X32784257Y11403880D01*
X32834320Y11653520D01*
X32834320Y15194280D01*
X32787343Y15436403D01*
X32647553Y15649207D01*
X32436520Y15791657D01*
X32186880Y15841720D01*
X30576000Y15841720D01*
X30576000Y18681288D01*
X30596789Y18695178D01*
X30861000Y19090599D01*
X31125211Y18695178D01*
X31586671Y18386841D01*
X32131000Y18278567D01*
X32675329Y18386841D01*
X33136789Y18695178D01*
X33401000Y19090599D01*
X33665211Y18695178D01*
X33686000Y18681288D01*
X33686000Y8026400D01*
X33760979Y7649457D01*
X33974500Y7329900D01*
X35787454Y5516946D01*
X35631539Y5141459D01*
X35630704Y4184539D01*
X35996129Y3300142D01*
X36672183Y2622907D01*
X37555941Y2255939D01*
X38512861Y2255104D01*
X39397258Y2620529D01*
X40074493Y3296583D01*
X40441461Y4180341D01*
X40442296Y5137261D01*
X40285452Y5516853D01*
X40449500Y5680900D01*
X40571680Y5558720D01*
X40571680Y2763520D01*
X40618657Y2521397D01*
X40758447Y2308593D01*
X40969480Y2166143D01*
X41219120Y2116080D01*
X44759880Y2116080D01*
X45002003Y2163057D01*
X45214807Y2302847D01*
X45357257Y2513880D01*
X45407320Y2763520D01*
X45407320Y6304280D01*
X45360343Y6546403D01*
X45220553Y6759207D01*
X45009520Y6901657D01*
X44759880Y6951720D01*
X41964680Y6951720D01*
X41907509Y7008891D01*
X42020300Y7177693D01*
X42125964Y7708900D01*
X42020300Y8240107D01*
X41719396Y8690442D01*
X41287687Y8978900D01*
X41719396Y9267358D01*
X42020300Y9717693D01*
X42125964Y10248900D01*
X42020300Y10780107D01*
X41958378Y10872779D01*
X41964680Y10879080D01*
X44759880Y10879080D01*
X45002003Y10926057D01*
X45214807Y11065847D01*
X45357257Y11276880D01*
X45407320Y11526520D01*
X45407320Y15067280D01*
X45360343Y15309403D01*
X45220553Y15522207D01*
X45009520Y15664657D01*
X44759880Y15714720D01*
X43276000Y15714720D01*
X43276000Y18681288D01*
X43296789Y18695178D01*
X43561000Y19090599D01*
X43825211Y18695178D01*
X44286671Y18386841D01*
X44831000Y18278567D01*
X45375329Y18386841D01*
X45836789Y18695178D01*
X46101000Y19090599D01*
X46365211Y18695178D01*
X46826671Y18386841D01*
X47371000Y18278567D01*
X47915329Y18386841D01*
X48376789Y18695178D01*
X48685126Y19156638D01*
X48793400Y19700967D01*
X48793400Y20481833D01*
X48685126Y21026162D01*
X48376789Y21487622D01*
X48356000Y21501513D01*
X48356000Y24028400D01*
X48356000Y25959299D01*
X48400523Y25967937D01*
X48613327Y26107727D01*
X48755777Y26318760D01*
X48805840Y26568400D01*
X48805840Y26726400D01*
X51154000Y26726400D01*
X52296560Y25583840D01*
X52296560Y25029400D01*
X52343537Y24787277D01*
X52483327Y24574473D01*
X52694360Y24432023D01*
X52944000Y24381960D01*
X54244000Y24381960D01*
X54486123Y24428937D01*
X54698927Y24568727D01*
X54841377Y24779760D01*
X54891440Y25029400D01*
X54891440Y25583840D01*
X56097500Y26789900D01*
X58478680Y26789900D01*
X58478680Y26004520D01*
X58525657Y25762397D01*
X58665447Y25549593D01*
X58876480Y25407143D01*
X59126120Y25357080D01*
X62666880Y25357080D01*
X62909003Y25404057D01*
X63121807Y25543847D01*
X63264257Y25754880D01*
X63314320Y26004520D01*
X63314320Y26789900D01*
X67241680Y26789900D01*
X67241680Y26004520D01*
X67288657Y25762397D01*
X67428447Y25549593D01*
X67639480Y25407143D01*
X67889120Y25357080D01*
X71429880Y25357080D01*
X71672003Y25404057D01*
X71884807Y25543847D01*
X72027257Y25754880D01*
X72069274Y25964400D01*
X74036180Y25964400D01*
X74036180Y25179020D01*
X74083157Y24936897D01*
X74222947Y24724093D01*
X74433980Y24581643D01*
X74683620Y24531580D01*
X78224380Y24531580D01*
X78466503Y24578557D01*
X78679307Y24718347D01*
X78821757Y24929380D01*
X78871820Y25179020D01*
X78871820Y28719780D01*
X78824843Y28961903D01*
X78685053Y29174707D01*
X78474020Y29317157D01*
X78224380Y29367220D01*
X74683620Y29367220D01*
X74441497Y29320243D01*
X74228693Y29180453D01*
X74086243Y28969420D01*
X74036180Y28719780D01*
X74036180Y27934400D01*
X72077320Y27934400D01*
X72077320Y29545280D01*
X72030343Y29787403D01*
X71890553Y30000207D01*
X71679520Y30142657D01*
X71429880Y30192720D01*
X67889120Y30192720D01*
X67646997Y30145743D01*
X67434193Y30005953D01*
X67291743Y29794920D01*
X67241680Y29545280D01*
X67241680Y28759900D01*
X63314320Y28759900D01*
X63314320Y29545280D01*
X63267343Y29787403D01*
X63127553Y30000207D01*
X62916520Y30142657D01*
X62666880Y30192720D01*
X59126120Y30192720D01*
X58883997Y30145743D01*
X58671193Y30005953D01*
X58528743Y29794920D01*
X58478680Y29545280D01*
X58478680Y28759900D01*
X55689500Y28759900D01*
X55312557Y28684921D01*
X54993000Y28471401D01*
X53593999Y27072401D01*
X52258500Y28407900D01*
X51938943Y28621421D01*
X51562000Y28696400D01*
X48805840Y28696400D01*
X48805840Y28854400D01*
X48758863Y29096523D01*
X48619073Y29309327D01*
X48408040Y29451777D01*
X48158400Y29501840D01*
X46583600Y29501840D01*
X46341477Y29454863D01*
X46128673Y29315073D01*
X45986223Y29104040D01*
X45952279Y28934779D01*
X45836789Y29107622D01*
X45375329Y29415959D01*
X44831000Y29524233D01*
X44286671Y29415959D01*
X43825211Y29107622D01*
X43561000Y28712202D01*
X43296789Y29107622D01*
X42835329Y29415959D01*
X42291000Y29524233D01*
X41746671Y29415959D01*
X41285211Y29107622D01*
X41021246Y28712571D01*
X41016525Y28728662D01*
X40666986Y29162591D01*
X40177996Y29429727D01*
X40098060Y29446410D01*
X39878000Y29324252D01*
X39878000Y27838400D01*
X39898000Y27838400D01*
X39898000Y27584400D01*
X39878000Y27584400D01*
X39878000Y26098548D01*
X40098060Y25976390D01*
X40177996Y25993073D01*
X40666986Y26260209D01*
X40862717Y26503197D01*
X40656284Y26006048D01*
X40655716Y25355605D01*
X40797112Y25013400D01*
X39624000Y25013400D01*
X39624000Y26098548D01*
X39624000Y27584400D01*
X39624000Y27838400D01*
X39624000Y29324252D01*
X39403940Y29446410D01*
X39324004Y29429727D01*
X38835014Y29162591D01*
X38485475Y28728662D01*
X38481000Y28713411D01*
X38476525Y28728662D01*
X38126986Y29162591D01*
X37637996Y29429727D01*
X37558060Y29446410D01*
X37338000Y29324252D01*
X37338000Y27838400D01*
X38328600Y27838400D01*
X38633400Y27838400D01*
X39624000Y27838400D01*
X39624000Y27584400D01*
X38633400Y27584400D01*
X38328600Y27584400D01*
X37338000Y27584400D01*
X37338000Y26098548D01*
X37558060Y25976390D01*
X37637996Y25993073D01*
X38126986Y26260209D01*
X38476525Y26694138D01*
X38481000Y26709390D01*
X38485475Y26694138D01*
X38835014Y26260209D01*
X39324004Y25993073D01*
X39403940Y25976390D01*
X39624000Y26098548D01*
X39624000Y25013400D01*
X36107764Y25013400D01*
X36280316Y25428952D01*
X36280884Y26079395D01*
X36112607Y26486655D01*
X36295014Y26260209D01*
X36784004Y25993073D01*
X36863940Y25976390D01*
X37084000Y26098548D01*
X37084000Y27584400D01*
X37064000Y27584400D01*
X37064000Y27838400D01*
X37084000Y27838400D01*
X37084000Y29324252D01*
X36863940Y29446410D01*
X36784004Y29429727D01*
X36295014Y29162591D01*
X35945475Y28728662D01*
X35940753Y28712571D01*
X35676789Y29107622D01*
X35215329Y29415959D01*
X34671000Y29524233D01*
X34126671Y29415959D01*
X33665211Y29107622D01*
X33401000Y28712202D01*
X33136789Y29107622D01*
X32675329Y29415959D01*
X32131000Y29524233D01*
X31586671Y29415959D01*
X31125211Y29107622D01*
X30861000Y28712202D01*
X30596789Y29107622D01*
X30576000Y29121513D01*
X30576000Y41300400D01*
X30501021Y41677343D01*
X30287500Y41996900D01*
X28544000Y43740400D01*
X28544000Y44894558D01*
X28594830Y44818485D01*
X29081011Y44493629D01*
X29654500Y44379555D01*
X30227989Y44493629D01*
X30714170Y44818485D01*
X30924500Y45133266D01*
X31134830Y44818485D01*
X31621011Y44493629D01*
X32194500Y44379555D01*
X32767989Y44493629D01*
X33254170Y44818485D01*
X33464500Y45133266D01*
X33674830Y44818485D01*
X34161011Y44493629D01*
X34734500Y44379555D01*
X35307989Y44493629D01*
X35794170Y44818485D01*
X36000960Y45127970D01*
X36372464Y44712168D01*
X36899709Y44458191D01*
X36915474Y44455542D01*
X37147500Y44576683D01*
X37147500Y45935900D01*
X37127500Y45935900D01*
X37127500Y46189900D01*
X37147500Y46189900D01*
X37147500Y47549117D01*
X36915474Y47670258D01*
X36899709Y47667609D01*
X36372464Y47413632D01*
X36000960Y46997831D01*
X35794170Y47307315D01*
X35307989Y47632171D01*
X34734500Y47746245D01*
X34161011Y47632171D01*
X33674830Y47307315D01*
X33464500Y46992535D01*
X33254170Y47307315D01*
X32767989Y47632171D01*
X32194500Y47746245D01*
X31621011Y47632171D01*
X31134830Y47307315D01*
X30924500Y46992535D01*
X30714170Y47307315D01*
X30227989Y47632171D01*
X29654500Y47746245D01*
X29081011Y47632171D01*
X28594830Y47307315D01*
X28544000Y47231243D01*
X28544000Y58799400D01*
X29412326Y59667727D01*
X29654500Y59619555D01*
X30227989Y59733629D01*
X30714170Y60058485D01*
X30920960Y60367970D01*
X31292464Y59952168D01*
X31819709Y59698191D01*
X31835474Y59695542D01*
X32067500Y59816683D01*
X32067500Y61175900D01*
X32047500Y61175900D01*
X32047500Y61429900D01*
X32067500Y61429900D01*
X32067500Y62789117D01*
X31884077Y62884883D01*
X32242958Y63033535D01*
X32341557Y63300337D01*
X31369000Y64272895D01*
X31354857Y64258753D01*
X31175252Y64438358D01*
X31189395Y64452500D01*
X30216837Y65425057D01*
X29950035Y65326458D01*
X29723599Y64716918D01*
X29747659Y64067123D01*
X29766568Y64021472D01*
X29320280Y64467760D01*
X29320774Y65032734D01*
X29282343Y65125744D01*
X29872000Y65715400D01*
X30437366Y65715400D01*
X30396443Y65604663D01*
X31369000Y64632105D01*
X32341557Y65604663D01*
X32300633Y65715400D01*
X34925000Y65715400D01*
X35301943Y65790379D01*
X35621500Y66003900D01*
X37306560Y67688960D01*
X37861000Y67688960D01*
X38103123Y67735937D01*
X38315927Y67875727D01*
X38458377Y68086760D01*
X38508440Y68336400D01*
X38508440Y69636400D01*
X38461463Y69878523D01*
X38321673Y70091327D01*
X38110640Y70233777D01*
X37861000Y70283840D01*
X36561000Y70283840D01*
X36318877Y70236863D01*
X36106073Y70097073D01*
X35963623Y69886040D01*
X35913560Y69636400D01*
X35913560Y69081960D01*
X35264472Y68432873D01*
X35264884Y68903795D01*
X35016494Y69504943D01*
X34556963Y69965278D01*
X33956248Y70214716D01*
X33355089Y70215241D01*
X33132783Y70363781D01*
X32755840Y70438760D01*
X32695222Y70438760D01*
X32421260Y70713200D01*
X53435091Y70713200D01*
X58829708Y70288642D01*
X64065267Y69031712D01*
X69039754Y66971174D01*
X72796134Y64669280D01*
X72789421Y64670081D01*
X72173401Y64497024D01*
X72061041Y64428476D01*
X71966227Y64164880D01*
X73269974Y62861133D01*
X73284116Y62875276D01*
X73463721Y62695671D01*
X73449579Y62681528D01*
X74753326Y61377781D01*
X75016922Y61472595D01*
X75085470Y61584955D01*
X75258527Y62200975D01*
X75183206Y62831844D01*
X77724834Y60661035D01*
X79109915Y59039354D01*
X78812929Y59206071D01*
X78177575Y59281927D01*
X77561555Y59108870D01*
X77449195Y59040322D01*
X77354381Y58776726D01*
X78658128Y57472979D01*
X78672270Y57487122D01*
X78851875Y57307517D01*
X78837733Y57293374D01*
X80141480Y55989627D01*
X80405076Y56084441D01*
X80473624Y56196801D01*
X80646681Y56812821D01*
X80587380Y57309507D01*
X81221711Y56566820D01*
X84034973Y51975955D01*
X84235600Y51491609D01*
X84158409Y51414418D01*
X84102729Y51645011D01*
X83619922Y51813022D01*
X83109572Y51783483D01*
X82775271Y51645011D01*
X82719590Y51414416D01*
X83439000Y50695005D01*
X83453142Y50709148D01*
X83632747Y50529543D01*
X83618605Y50515400D01*
X84338016Y49795990D01*
X84568611Y49851671D01*
X84726708Y50305990D01*
X86095511Y47001468D01*
X87352441Y41765919D01*
X87774882Y36398201D01*
X87774882Y36398201D01*
G37*
X87774882Y36398201D02*
X87352441Y31030482D01*
X86479769Y27395499D01*
X86479796Y27425761D01*
X86114371Y28310158D01*
X85438317Y28987393D01*
X84736440Y29278838D01*
X84736440Y46365400D01*
X84736440Y47665400D01*
X84689463Y47907523D01*
X84549673Y48120327D01*
X84338640Y48262777D01*
X84158410Y48298921D01*
X84158410Y49616384D01*
X83439000Y50335795D01*
X83259395Y50156190D01*
X83259395Y50515400D01*
X82539984Y51234810D01*
X82309389Y51179129D01*
X82141378Y50696322D01*
X82170917Y50185972D01*
X82309389Y49851671D01*
X82539984Y49795990D01*
X83259395Y50515400D01*
X83259395Y50156190D01*
X82719590Y49616384D01*
X82775271Y49385789D01*
X83258078Y49217778D01*
X83768428Y49247317D01*
X84102729Y49385789D01*
X84158410Y49616384D01*
X84158410Y48298921D01*
X84089000Y48312840D01*
X83788560Y48312840D01*
X79961875Y52139525D01*
X79961875Y55810022D01*
X78658128Y57113769D01*
X78478523Y56934164D01*
X78478523Y57293374D01*
X77174776Y58597121D01*
X76911180Y58502307D01*
X76842632Y58389947D01*
X76669575Y57773927D01*
X76745431Y57138573D01*
X77058652Y56580610D01*
X77412206Y56227057D01*
X78478523Y57293374D01*
X78478523Y56934164D01*
X77591811Y56047452D01*
X77945364Y55693898D01*
X78503327Y55380677D01*
X79138681Y55304821D01*
X79754701Y55477878D01*
X79867061Y55546426D01*
X79961875Y55810022D01*
X79961875Y52139525D01*
X78963000Y53138400D01*
X78963000Y53873400D01*
X78888021Y54250343D01*
X78674500Y54569900D01*
X74573721Y58670679D01*
X74573721Y61198176D01*
X73269974Y62501923D01*
X73090369Y62322318D01*
X73090369Y62681528D01*
X71786622Y63985275D01*
X71523026Y63890461D01*
X71454478Y63778101D01*
X71281421Y63162081D01*
X71357277Y62526727D01*
X71670498Y61968764D01*
X72024052Y61615211D01*
X73090369Y62681528D01*
X73090369Y62322318D01*
X72203657Y61435606D01*
X72557210Y61082052D01*
X73115173Y60768831D01*
X73750527Y60692975D01*
X74366547Y60866032D01*
X74478907Y60934580D01*
X74573721Y61198176D01*
X74573721Y58670679D01*
X70165500Y63078900D01*
X69845943Y63292421D01*
X69469000Y63367400D01*
X68676000Y63367400D01*
X68676000Y63738760D01*
X68601021Y64115703D01*
X68387500Y64435260D01*
X67293280Y65529480D01*
X67293774Y66094454D01*
X67045462Y66695415D01*
X66586073Y67155606D01*
X65985547Y67404966D01*
X65335306Y67405534D01*
X64734345Y67157222D01*
X64274154Y66697833D01*
X64024794Y66097307D01*
X64024297Y65529058D01*
X61785500Y63290260D01*
X59837860Y65237900D01*
X59518303Y65451421D01*
X59141360Y65526400D01*
X53962040Y65526400D01*
X53962040Y65557400D01*
X53915063Y65799523D01*
X53775273Y66012327D01*
X53564240Y66154777D01*
X53563000Y66155026D01*
X53563000Y66711515D01*
X53683723Y66734937D01*
X53896527Y66874727D01*
X54038977Y67085760D01*
X54089040Y67335400D01*
X54089040Y69367400D01*
X54042063Y69609523D01*
X53902273Y69822327D01*
X53691240Y69964777D01*
X53441600Y70014840D01*
X51714400Y70014840D01*
X51472277Y69967863D01*
X51259473Y69828073D01*
X51117023Y69617040D01*
X51098516Y69524755D01*
X50940036Y69702132D01*
X50412791Y69956109D01*
X50397026Y69958758D01*
X50165000Y69837617D01*
X50165000Y68478400D01*
X50185000Y68478400D01*
X50185000Y68224400D01*
X50165000Y68224400D01*
X50165000Y66865183D01*
X50397026Y66744042D01*
X50412791Y66746691D01*
X50940036Y67000668D01*
X51097673Y67177102D01*
X51113937Y67093277D01*
X51253727Y66880473D01*
X51464760Y66738023D01*
X51593000Y66712306D01*
X51593000Y66204840D01*
X51587400Y66204840D01*
X51345277Y66157863D01*
X51132473Y66018073D01*
X50990023Y65807040D01*
X50971516Y65714755D01*
X50813036Y65892132D01*
X50285791Y66146109D01*
X50270026Y66148758D01*
X50038000Y66027617D01*
X50038000Y64668400D01*
X50058000Y64668400D01*
X50058000Y64414400D01*
X50038000Y64414400D01*
X50038000Y64394400D01*
X49784000Y64394400D01*
X49784000Y64414400D01*
X49764000Y64414400D01*
X49764000Y64668400D01*
X49784000Y64668400D01*
X49784000Y66027617D01*
X49551974Y66148758D01*
X49536209Y66146109D01*
X49008964Y65892132D01*
X48637460Y65476331D01*
X48430670Y65785815D01*
X47944489Y66110671D01*
X47694387Y66160420D01*
X48088434Y66554466D01*
X48269439Y66825359D01*
X48269439Y66825360D01*
X48289864Y66928043D01*
X48557670Y67106985D01*
X48764460Y67416470D01*
X49135964Y67000668D01*
X49663209Y66746691D01*
X49678974Y66744042D01*
X49911000Y66865183D01*
X49911000Y68224400D01*
X49891000Y68224400D01*
X49891000Y68478400D01*
X49911000Y68478400D01*
X49911000Y69837617D01*
X49678974Y69958758D01*
X49663209Y69956109D01*
X49135964Y69702132D01*
X48764460Y69286331D01*
X48557670Y69595815D01*
X48071489Y69920671D01*
X47498000Y70034745D01*
X46924511Y69920671D01*
X46438330Y69595815D01*
X46228000Y69281035D01*
X46017670Y69595815D01*
X45531489Y69920671D01*
X44958000Y70034745D01*
X44384511Y69920671D01*
X43898330Y69595815D01*
X43688000Y69281035D01*
X43477670Y69595815D01*
X42991489Y69920671D01*
X42418000Y70034745D01*
X41844511Y69920671D01*
X41358330Y69595815D01*
X41033474Y69109634D01*
X40919400Y68536145D01*
X40919400Y68166655D01*
X41033474Y67593166D01*
X41320032Y67164301D01*
X39224066Y65068334D01*
X39043061Y64797441D01*
X38979500Y64477900D01*
X38979500Y62697435D01*
X38754830Y62547315D01*
X38544500Y62232535D01*
X38508622Y62286231D01*
X38508622Y65305478D01*
X38479083Y65815828D01*
X38340611Y66150129D01*
X38110016Y66205810D01*
X37930410Y66026205D01*
X37930410Y66385416D01*
X37874729Y66616011D01*
X37391922Y66784022D01*
X36881572Y66754483D01*
X36547271Y66616011D01*
X36491590Y66385416D01*
X37211000Y65666005D01*
X37930410Y66385416D01*
X37930410Y66026205D01*
X37390605Y65486400D01*
X38110016Y64766990D01*
X38340611Y64822671D01*
X38508622Y65305478D01*
X38508622Y62286231D01*
X38334170Y62547315D01*
X37930410Y62817100D01*
X37930410Y64587384D01*
X37211000Y65306795D01*
X37031395Y65127190D01*
X37031395Y65486400D01*
X36311984Y66205810D01*
X36081389Y66150129D01*
X35913378Y65667322D01*
X35942917Y65156972D01*
X36081389Y64822671D01*
X36311984Y64766990D01*
X37031395Y65486400D01*
X37031395Y65127190D01*
X36491590Y64587384D01*
X36547271Y64356789D01*
X37030078Y64188778D01*
X37540428Y64218317D01*
X37874729Y64356789D01*
X37930410Y64587384D01*
X37930410Y62817100D01*
X37847989Y62872171D01*
X37274500Y62986245D01*
X36701011Y62872171D01*
X36214830Y62547315D01*
X36004500Y62232535D01*
X35794170Y62547315D01*
X35307989Y62872171D01*
X34734500Y62986245D01*
X34161011Y62872171D01*
X33674830Y62547315D01*
X33468039Y62237831D01*
X33096536Y62653632D01*
X33014401Y62693197D01*
X33014401Y64188082D01*
X32990341Y64837877D01*
X32787965Y65326458D01*
X32521163Y65425057D01*
X31548605Y64452500D01*
X32521163Y63479943D01*
X32787965Y63578542D01*
X33014401Y64188082D01*
X33014401Y62693197D01*
X32569291Y62907609D01*
X32553526Y62910258D01*
X32321500Y62789117D01*
X32321500Y61429900D01*
X32341500Y61429900D01*
X32341500Y61175900D01*
X32321500Y61175900D01*
X32321500Y59816683D01*
X32553526Y59695542D01*
X32569291Y59698191D01*
X33096536Y59952168D01*
X33468039Y60367970D01*
X33674830Y60058485D01*
X34161011Y59733629D01*
X34734500Y59619555D01*
X35307989Y59733629D01*
X35521229Y59876113D01*
X35464000Y59588400D01*
X35464000Y57048400D01*
X35538979Y56671457D01*
X35752500Y56351900D01*
X38419500Y53684900D01*
X38739057Y53471379D01*
X39116000Y53396400D01*
X63627000Y53396400D01*
X64003943Y53471379D01*
X64323500Y53684900D01*
X67244500Y56605900D01*
X67458021Y56925457D01*
X67533000Y57302400D01*
X67533000Y58418400D01*
X67855202Y58740603D01*
X68138622Y58316436D01*
X68692872Y57762187D01*
X68692872Y57538272D01*
X64235000Y53080400D01*
X56261000Y53080400D01*
X55884057Y53005421D01*
X55564500Y52791900D01*
X51818000Y49045400D01*
X51604479Y48725843D01*
X51529500Y48348900D01*
X51529500Y47357208D01*
X51454830Y47307315D01*
X51244500Y46992535D01*
X51034170Y47307315D01*
X50547989Y47632171D01*
X49974500Y47746245D01*
X49401011Y47632171D01*
X48914830Y47307315D01*
X48704500Y46992535D01*
X48494170Y47307315D01*
X48007989Y47632171D01*
X47434500Y47746245D01*
X46861011Y47632171D01*
X46374830Y47307315D01*
X46164500Y46992535D01*
X45954170Y47307315D01*
X45467989Y47632171D01*
X44894500Y47746245D01*
X44321011Y47632171D01*
X43834830Y47307315D01*
X43624500Y46992535D01*
X43414170Y47307315D01*
X42927989Y47632171D01*
X42354500Y47746245D01*
X41781011Y47632171D01*
X41294830Y47307315D01*
X41084500Y46992535D01*
X40874170Y47307315D01*
X40387989Y47632171D01*
X39814500Y47746245D01*
X39241011Y47632171D01*
X38754830Y47307315D01*
X38548039Y46997831D01*
X38176536Y47413632D01*
X37649291Y47667609D01*
X37633526Y47670258D01*
X37401500Y47549117D01*
X37401500Y46189900D01*
X37421500Y46189900D01*
X37421500Y45935900D01*
X37401500Y45935900D01*
X37401500Y44576683D01*
X37633526Y44455542D01*
X37649291Y44458191D01*
X38176536Y44712168D01*
X38548039Y45127970D01*
X38754830Y44818485D01*
X38829500Y44768593D01*
X38829500Y44030900D01*
X38904479Y43653957D01*
X39118000Y43334400D01*
X51500500Y30951900D01*
X51820057Y30738379D01*
X52197000Y30663400D01*
X79858692Y30663400D01*
X79908585Y30588730D01*
X80394766Y30263874D01*
X80968255Y30149800D01*
X81337745Y30149800D01*
X81911234Y30263874D01*
X82397415Y30588730D01*
X82722271Y31074911D01*
X82836345Y31648400D01*
X82722271Y32221889D01*
X82397415Y32708070D01*
X82082634Y32918400D01*
X82397415Y33128730D01*
X82722271Y33614911D01*
X82836345Y34188400D01*
X82722271Y34761889D01*
X82397415Y35248070D01*
X82082634Y35458400D01*
X82397415Y35668730D01*
X82722271Y36154911D01*
X82836345Y36728400D01*
X82722271Y37301889D01*
X82397415Y37788070D01*
X82087930Y37994861D01*
X82503732Y38366364D01*
X82757709Y38893609D01*
X82760358Y38909374D01*
X82639217Y39141400D01*
X81280000Y39141400D01*
X81280000Y39121400D01*
X81026000Y39121400D01*
X81026000Y39141400D01*
X79666783Y39141400D01*
X79545642Y38909374D01*
X79548291Y38893609D01*
X79802268Y38366364D01*
X80218069Y37994861D01*
X79908585Y37788070D01*
X79858692Y37713400D01*
X78902600Y37713400D01*
X78902600Y47590891D01*
X78902600Y48431450D01*
X78902600Y49002950D01*
X78902600Y49843509D01*
X78805927Y50076898D01*
X78627299Y50255527D01*
X78393910Y50352200D01*
X78141291Y50352200D01*
X77603350Y50352200D01*
X77444600Y50193450D01*
X77444600Y48844200D01*
X78743850Y48844200D01*
X78902600Y49002950D01*
X78902600Y48431450D01*
X78743850Y48590200D01*
X77444600Y48590200D01*
X77444600Y47240950D01*
X77603350Y47082200D01*
X78141291Y47082200D01*
X78393910Y47082200D01*
X78627299Y47178873D01*
X78805927Y47357502D01*
X78902600Y47590891D01*
X78902600Y37713400D01*
X77190600Y37713400D01*
X77190600Y47240950D01*
X77190600Y48590200D01*
X77170600Y48590200D01*
X77170600Y48844200D01*
X77190600Y48844200D01*
X77190600Y50193450D01*
X77031850Y50352200D01*
X76493909Y50352200D01*
X76241290Y50352200D01*
X76007901Y50255527D01*
X75829273Y50076898D01*
X75779588Y49956949D01*
X75676603Y50060114D01*
X75094259Y50301924D01*
X74463707Y50302475D01*
X73880943Y50061681D01*
X73434686Y49616203D01*
X73192876Y49033859D01*
X73192325Y48403307D01*
X73433119Y47820543D01*
X73878597Y47374286D01*
X74460941Y47132476D01*
X75091493Y47131925D01*
X75674257Y47372719D01*
X75779466Y47477746D01*
X75829273Y47357502D01*
X76007901Y47178873D01*
X76241290Y47082200D01*
X76493909Y47082200D01*
X77031850Y47082200D01*
X77190600Y47240950D01*
X77190600Y37713400D01*
X72719075Y37713400D01*
X72719075Y49580120D01*
X70662800Y51636395D01*
X70483195Y51456790D01*
X70483195Y51816000D01*
X68426920Y53872275D01*
X68004236Y53590579D01*
X67527506Y52438108D01*
X67528095Y51190928D01*
X68004236Y50041421D01*
X68426920Y49759725D01*
X70483195Y51816000D01*
X70483195Y51456790D01*
X68606525Y49580120D01*
X68888221Y49157436D01*
X70040692Y48680706D01*
X71287872Y48681295D01*
X72437379Y49157436D01*
X72719075Y49580120D01*
X72719075Y37713400D01*
X67507134Y37713400D01*
X67507134Y49879094D01*
X67258822Y50480055D01*
X66799433Y50940246D01*
X66198907Y51189606D01*
X65548666Y51190174D01*
X64947705Y50941862D01*
X64487514Y50482473D01*
X64238154Y49881947D01*
X64237586Y49231706D01*
X64485898Y48630745D01*
X64945287Y48170554D01*
X65545813Y47921194D01*
X66196054Y47920626D01*
X66797015Y48168938D01*
X67257206Y48628327D01*
X67506566Y49228853D01*
X67507134Y49879094D01*
X67507134Y37713400D01*
X65913000Y37713400D01*
X65913000Y44857091D01*
X65913000Y45713650D01*
X65913000Y46285150D01*
X65913000Y47141709D01*
X65816327Y47375098D01*
X65637699Y47553727D01*
X65404310Y47650400D01*
X65151691Y47650400D01*
X64547750Y47650400D01*
X64389000Y47491650D01*
X64389000Y46126400D01*
X65754250Y46126400D01*
X65913000Y46285150D01*
X65913000Y45713650D01*
X65754250Y45872400D01*
X64389000Y45872400D01*
X64389000Y44507150D01*
X64547750Y44348400D01*
X65151691Y44348400D01*
X65404310Y44348400D01*
X65637699Y44445073D01*
X65816327Y44623702D01*
X65913000Y44857091D01*
X65913000Y37713400D01*
X52986000Y37713400D01*
X48461043Y42238357D01*
X48981743Y42453506D01*
X49269860Y42741121D01*
X49682137Y42328122D01*
X50282852Y42078684D01*
X50933295Y42078116D01*
X51534443Y42326506D01*
X51994778Y42786037D01*
X52244216Y43386752D01*
X52244784Y44037195D01*
X52066502Y44468668D01*
X52514500Y44379555D01*
X53087989Y44493629D01*
X53574170Y44818485D01*
X53784500Y45133266D01*
X53994830Y44818485D01*
X54069500Y44768593D01*
X54069500Y44157900D01*
X54144479Y43780957D01*
X54358000Y43461400D01*
X55310500Y42508900D01*
X55630057Y42295379D01*
X56007000Y42220400D01*
X58928000Y42220400D01*
X59304943Y42295379D01*
X59624500Y42508900D01*
X61479826Y44364227D01*
X61722000Y44316055D01*
X62353810Y44441730D01*
X62690001Y44666366D01*
X62707673Y44623702D01*
X62886301Y44445073D01*
X63119690Y44348400D01*
X63372309Y44348400D01*
X63976250Y44348400D01*
X64135000Y44507150D01*
X64135000Y45872400D01*
X64115000Y45872400D01*
X64115000Y46126400D01*
X64135000Y46126400D01*
X64135000Y47491650D01*
X63976250Y47650400D01*
X63372309Y47650400D01*
X63119690Y47650400D01*
X62886301Y47553727D01*
X62707673Y47375098D01*
X62690001Y47332435D01*
X62353810Y47557070D01*
X61722000Y47682745D01*
X61090190Y47557070D01*
X60554567Y47199178D01*
X60196675Y46663555D01*
X60071000Y46031745D01*
X60071000Y45967055D01*
X60108438Y45778839D01*
X58520000Y44190400D01*
X56415000Y44190400D01*
X56039500Y44565900D01*
X56039500Y44768593D01*
X56114170Y44818485D01*
X56324500Y45133266D01*
X56534830Y44818485D01*
X57021011Y44493629D01*
X57594500Y44379555D01*
X58167989Y44493629D01*
X58654170Y44818485D01*
X58979026Y45304666D01*
X59093100Y45878155D01*
X59093100Y46247645D01*
X59070410Y46361711D01*
X60629819Y47921120D01*
X61194794Y47920626D01*
X61795755Y48168938D01*
X62255946Y48628327D01*
X62505306Y49228853D01*
X62505874Y49879094D01*
X62257562Y50480055D01*
X61798173Y50940246D01*
X61388396Y51110400D01*
X64643000Y51110400D01*
X65019943Y51185379D01*
X65339500Y51398900D01*
X70374372Y56433772D01*
X70587893Y56753329D01*
X70593380Y56780918D01*
X73088045Y54286252D01*
X73047895Y54084402D01*
X73119342Y53725216D01*
X72898680Y53872275D01*
X72719075Y53692670D01*
X72719075Y54051880D01*
X72437379Y54474564D01*
X71284908Y54951294D01*
X70037728Y54950705D01*
X68888221Y54474564D01*
X68606525Y54051880D01*
X70662800Y51995605D01*
X72719075Y54051880D01*
X72719075Y53692670D01*
X70842405Y51816000D01*
X72898680Y49759725D01*
X73321364Y50041421D01*
X73798094Y51193892D01*
X73797505Y52441072D01*
X73644429Y52810629D01*
X74293036Y52162023D01*
X74823468Y51807599D01*
X75449156Y51683142D01*
X76074843Y51807599D01*
X76605275Y52162023D01*
X76959699Y52692455D01*
X76993000Y52859871D01*
X76993000Y52730400D01*
X77067979Y52353457D01*
X77281500Y52033900D01*
X82141560Y47173840D01*
X82141560Y46365400D01*
X82188537Y46123277D01*
X82328327Y45910473D01*
X82454000Y45825643D01*
X82454000Y44502400D01*
X81271040Y43319440D01*
X80137000Y43319440D01*
X79894877Y43272463D01*
X79682073Y43132673D01*
X79539623Y42921640D01*
X79489560Y42672000D01*
X79489560Y40944800D01*
X79536537Y40702677D01*
X79676327Y40489873D01*
X79887360Y40347423D01*
X79979645Y40328917D01*
X79802268Y40170436D01*
X79548291Y39643191D01*
X79545642Y39627426D01*
X79666783Y39395400D01*
X81026000Y39395400D01*
X81026000Y39415400D01*
X81280000Y39415400D01*
X81280000Y39395400D01*
X82639217Y39395400D01*
X82760358Y39627426D01*
X82757709Y39643191D01*
X82503732Y40170436D01*
X82327298Y40328074D01*
X82411123Y40344337D01*
X82623927Y40484127D01*
X82766377Y40695160D01*
X82816440Y40944800D01*
X82816440Y42078840D01*
X84135500Y43397900D01*
X84349021Y43717457D01*
X84424000Y44094400D01*
X84424000Y45825948D01*
X84543927Y45904727D01*
X84686377Y46115760D01*
X84736440Y46365400D01*
X84736440Y29278838D01*
X84554559Y29354361D01*
X83597639Y29355196D01*
X82713242Y28989771D01*
X82036007Y28313717D01*
X81669039Y27429959D01*
X81668204Y26473039D01*
X82033629Y25588642D01*
X82709683Y24911407D01*
X82864656Y24847057D01*
X81218500Y23200900D01*
X81004979Y22881343D01*
X80930000Y22504400D01*
X80930000Y19864401D01*
X79982999Y18917400D01*
X79911931Y18917400D01*
X80009896Y18982858D01*
X80310800Y19433193D01*
X80416464Y19964400D01*
X80310800Y20495607D01*
X80009896Y20945942D01*
X79559561Y21246846D01*
X79556694Y21247417D01*
X79634919Y21270554D01*
X80057724Y21612660D01*
X80317427Y22090525D01*
X80331783Y22162726D01*
X80331783Y22846074D01*
X80317427Y22918275D01*
X80057724Y23396140D01*
X79634919Y23738246D01*
X79113380Y23892510D01*
X78359000Y23892510D01*
X78359000Y22631400D01*
X80209162Y22631400D01*
X80331783Y22846074D01*
X80331783Y22162726D01*
X80209162Y22377400D01*
X78359000Y22377400D01*
X78359000Y22357400D01*
X78105000Y22357400D01*
X78105000Y22377400D01*
X78105000Y22631400D01*
X78105000Y23892510D01*
X77350620Y23892510D01*
X76829081Y23738246D01*
X76406276Y23396140D01*
X76146573Y22918275D01*
X76132217Y22846074D01*
X76254838Y22631400D01*
X78105000Y22631400D01*
X78105000Y22377400D01*
X76254838Y22377400D01*
X76132217Y22162726D01*
X76146573Y22090525D01*
X76406276Y21612660D01*
X76829081Y21270554D01*
X76907305Y21247417D01*
X76904439Y21246846D01*
X76459279Y20949400D01*
X76454000Y20949400D01*
X76077057Y20874421D01*
X75757500Y20660900D01*
X74868500Y19771900D01*
X74654979Y19452343D01*
X74580000Y19075400D01*
X74580000Y14122400D01*
X74654979Y13745457D01*
X74868500Y13425900D01*
X74998559Y13295841D01*
X75003826Y13269360D01*
X74967359Y13276613D01*
X74437343Y13171186D01*
X73988016Y12870956D01*
X73687786Y12421629D01*
X73603284Y11996814D01*
X73372907Y12042639D01*
X72842891Y11937212D01*
X72393564Y11636982D01*
X72204320Y11353758D01*
X72204320Y13812520D01*
X72204320Y17353280D01*
X72157343Y17595403D01*
X72017553Y17808207D01*
X71806520Y17950657D01*
X71556880Y18000720D01*
X70744818Y18000720D01*
X71020258Y18114529D01*
X71697493Y18790583D01*
X72064461Y19674341D01*
X72065296Y20631261D01*
X71699871Y21515658D01*
X71023817Y22192893D01*
X70140059Y22559861D01*
X69183139Y22560696D01*
X69163018Y22552383D01*
X68260500Y23454900D01*
X67940943Y23668421D01*
X67564000Y23743400D01*
X67316141Y23743400D01*
X66916563Y24143678D01*
X66315848Y24393116D01*
X65665405Y24393684D01*
X65064257Y24145294D01*
X64603922Y23685763D01*
X64354484Y23085048D01*
X64353916Y22434605D01*
X64602306Y21833457D01*
X65061837Y21373122D01*
X65662552Y21123684D01*
X66312995Y21123116D01*
X66914143Y21371506D01*
X67236299Y21693101D01*
X67559503Y21369897D01*
X67254539Y20635459D01*
X67253910Y19915538D01*
X67015707Y20074700D01*
X66484500Y20180364D01*
X65953293Y20074700D01*
X65502958Y19773796D01*
X65214500Y19342088D01*
X64926042Y19773796D01*
X64475707Y20074700D01*
X63944500Y20180364D01*
X63413293Y20074700D01*
X63301745Y20000167D01*
X63302296Y20631261D01*
X62936871Y21515658D01*
X62260817Y22192893D01*
X61377059Y22559861D01*
X60420139Y22560696D01*
X59535742Y22195271D01*
X58858507Y21519217D01*
X58701000Y21139900D01*
X58350052Y21139900D01*
X58013863Y21476678D01*
X57413148Y21726116D01*
X56762705Y21726684D01*
X56161557Y21478294D01*
X55701222Y21018763D01*
X55451784Y20418048D01*
X55451216Y19767605D01*
X55699606Y19166457D01*
X56159137Y18706122D01*
X56759852Y18456684D01*
X57410295Y18456116D01*
X58011443Y18704506D01*
X58471778Y19164037D01*
X58474212Y19169900D01*
X58700869Y19169900D01*
X58856129Y18794142D01*
X59532183Y18116907D01*
X60415941Y17749939D01*
X61372861Y17749104D01*
X61752452Y17905948D01*
X61911680Y17746720D01*
X59126120Y17746720D01*
X58883997Y17699743D01*
X58671193Y17559953D01*
X58528743Y17348920D01*
X58478680Y17099280D01*
X58478680Y13558520D01*
X58525657Y13316397D01*
X58665447Y13103593D01*
X58876480Y12961143D01*
X59126120Y12911080D01*
X62666880Y12911080D01*
X62909003Y12958057D01*
X63121807Y13097847D01*
X63264257Y13308880D01*
X63314320Y13558520D01*
X63314320Y15983232D01*
X63413293Y15917100D01*
X63944500Y15811436D01*
X64475707Y15917100D01*
X64926042Y16218004D01*
X65214500Y16649713D01*
X65502958Y16218004D01*
X65953293Y15917100D01*
X66484500Y15811436D01*
X67015707Y15917100D01*
X67368680Y16152949D01*
X67368680Y13812520D01*
X67415657Y13570397D01*
X67555447Y13357593D01*
X67766480Y13215143D01*
X68016120Y13165080D01*
X71556880Y13165080D01*
X71799003Y13212057D01*
X72011807Y13351847D01*
X72154257Y13562880D01*
X72204320Y13812520D01*
X72204320Y11353758D01*
X72093334Y11187655D01*
X71987907Y10657639D01*
X72093334Y10127623D01*
X72393564Y9678296D01*
X73152896Y8918964D01*
X73600384Y8619962D01*
X72194632Y7758523D01*
X72185693Y8471477D01*
X71842605Y9299767D01*
X71495743Y9492538D01*
X71316138Y9312933D01*
X71316138Y9672143D01*
X71123367Y10019005D01*
X70234767Y10374090D01*
X69277923Y10362093D01*
X68449633Y10019005D01*
X68256862Y9672143D01*
X69786500Y8142505D01*
X71316138Y9672143D01*
X71316138Y9312933D01*
X69966105Y7962900D01*
X69980247Y7948758D01*
X69800642Y7769153D01*
X69786500Y7783295D01*
X69606895Y7603690D01*
X69606895Y7962900D01*
X68077257Y9492538D01*
X67730395Y9299767D01*
X67375310Y8411167D01*
X67387307Y7454323D01*
X67730395Y6626033D01*
X68077257Y6433262D01*
X69606895Y7962900D01*
X69606895Y7603690D01*
X68256862Y6253657D01*
X68449633Y5906795D01*
X68850223Y5746719D01*
X64065267Y3764689D01*
X63307690Y3582814D01*
X63307690Y7260633D01*
X63295693Y8217477D01*
X62952605Y9045767D01*
X62605743Y9238538D01*
X62426138Y9058933D01*
X62426138Y9418143D01*
X62233367Y9765005D01*
X61344767Y10120090D01*
X60387923Y10108093D01*
X59559633Y9765005D01*
X59366862Y9418143D01*
X60896500Y7888505D01*
X62426138Y9418143D01*
X62426138Y9058933D01*
X61076105Y7708900D01*
X62605743Y6179262D01*
X62952605Y6372033D01*
X63307690Y7260633D01*
X63307690Y3582814D01*
X62426138Y3371175D01*
X62426138Y5999657D01*
X60896500Y7529295D01*
X60716895Y7349690D01*
X60716895Y7708900D01*
X59187257Y9238538D01*
X58840395Y9045767D01*
X58485310Y8157167D01*
X58497307Y7200323D01*
X58840395Y6372033D01*
X59187257Y6179262D01*
X60716895Y7708900D01*
X60716895Y7349690D01*
X59366862Y5999657D01*
X59559633Y5652795D01*
X60448233Y5297710D01*
X61405077Y5309707D01*
X62233367Y5652795D01*
X62426138Y5999657D01*
X62426138Y3371175D01*
X58829708Y2507759D01*
X58202494Y2458397D01*
X58202494Y7505892D01*
X58201905Y8753072D01*
X57725764Y9902579D01*
X57303080Y10184275D01*
X57123475Y10004670D01*
X57123475Y10363880D01*
X56841779Y10786564D01*
X55689308Y11263294D01*
X54891622Y11262918D01*
X54891622Y21998478D01*
X54862083Y22508828D01*
X54723611Y22843129D01*
X54493016Y22898810D01*
X54313410Y22719205D01*
X54313410Y23078416D01*
X54257729Y23309011D01*
X53774922Y23477022D01*
X53264572Y23447483D01*
X52930271Y23309011D01*
X52874590Y23078416D01*
X53594000Y22359005D01*
X54313410Y23078416D01*
X54313410Y22719205D01*
X53773605Y22179400D01*
X54493016Y21459990D01*
X54723611Y21515671D01*
X54891622Y21998478D01*
X54891622Y11262918D01*
X54442128Y11262705D01*
X54313410Y11209389D01*
X54313410Y21280384D01*
X53594000Y21999795D01*
X53414395Y21820190D01*
X53414395Y22179400D01*
X52694984Y22898810D01*
X52464389Y22843129D01*
X52296378Y22360322D01*
X52325917Y21849972D01*
X52464389Y21515671D01*
X52694984Y21459990D01*
X53414395Y22179400D01*
X53414395Y21820190D01*
X52874590Y21280384D01*
X52930271Y21049789D01*
X53413078Y20881778D01*
X53923428Y20911317D01*
X54257729Y21049789D01*
X54313410Y21280384D01*
X54313410Y11209389D01*
X53292621Y10786564D01*
X53020690Y10378533D01*
X53020690Y12848633D01*
X53008693Y13805477D01*
X52665605Y14633767D01*
X52318743Y14826538D01*
X52139138Y14646933D01*
X52139138Y15006143D01*
X51946367Y15353005D01*
X51057767Y15708090D01*
X50100923Y15696093D01*
X49272633Y15353005D01*
X49079862Y15006143D01*
X50609500Y13476505D01*
X52139138Y15006143D01*
X52139138Y14646933D01*
X50789105Y13296900D01*
X52318743Y11767262D01*
X52665605Y11960033D01*
X53020690Y12848633D01*
X53020690Y10378533D01*
X53010925Y10363880D01*
X55067200Y8307605D01*
X57123475Y10363880D01*
X57123475Y10004670D01*
X55246805Y8128000D01*
X57303080Y6071725D01*
X57725764Y6353421D01*
X58202494Y7505892D01*
X58202494Y2458397D01*
X57123475Y2373478D01*
X57123475Y5892120D01*
X55067200Y7948395D01*
X54887595Y7768790D01*
X54887595Y8128000D01*
X52831320Y10184275D01*
X52408636Y9902579D01*
X52139138Y9251082D01*
X52139138Y11587657D01*
X50609500Y13117295D01*
X50429895Y12937690D01*
X50429895Y13296900D01*
X48900257Y14826538D01*
X48553395Y14633767D01*
X48198310Y13745167D01*
X48210307Y12788323D01*
X48553395Y11960033D01*
X48900257Y11767262D01*
X50429895Y13296900D01*
X50429895Y12937690D01*
X49079862Y11587657D01*
X49272633Y11240795D01*
X50161233Y10885710D01*
X51118077Y10897707D01*
X51946367Y11240795D01*
X52139138Y11587657D01*
X52139138Y9251082D01*
X51931906Y8750108D01*
X51932495Y7502928D01*
X52408636Y6353421D01*
X52831320Y6071725D01*
X54887595Y8128000D01*
X54887595Y7768790D01*
X53010925Y5892120D01*
X53292621Y5469436D01*
X54445092Y4992706D01*
X55692272Y4993295D01*
X56841779Y5469436D01*
X57123475Y5892120D01*
X57123475Y2373478D01*
X53435091Y2083200D01*
X53020690Y2083200D01*
X53020690Y4085633D01*
X53008693Y5042477D01*
X52665605Y5870767D01*
X52318743Y6063538D01*
X52139138Y5883933D01*
X52139138Y6243143D01*
X51946367Y6590005D01*
X51057767Y6945090D01*
X50100923Y6933093D01*
X49272633Y6590005D01*
X49079862Y6243143D01*
X50609500Y4713505D01*
X52139138Y6243143D01*
X52139138Y5883933D01*
X50789105Y4533900D01*
X52318743Y3004262D01*
X52665605Y3197033D01*
X53020690Y4085633D01*
X53020690Y2083200D01*
X52139138Y2083200D01*
X52139138Y2824657D01*
X50609500Y4354295D01*
X50429895Y4174690D01*
X50429895Y4533900D01*
X48900257Y6063538D01*
X48553395Y5870767D01*
X48198310Y4982167D01*
X48210307Y4025323D01*
X48553395Y3197033D01*
X48900257Y3004262D01*
X50429895Y4533900D01*
X50429895Y4174690D01*
X49079862Y2824657D01*
X49272633Y2477795D01*
X50161233Y2122710D01*
X51118077Y2134707D01*
X51946367Y2477795D01*
X52139138Y2824657D01*
X52139138Y2083200D01*
X26097000Y2083200D01*
X26097000Y28898200D01*
X26044857Y29160338D01*
X25896368Y29382568D01*
X25674138Y29531057D01*
X25412000Y29583200D01*
X18462000Y29583200D01*
X18199862Y29531057D01*
X17977632Y29382568D01*
X17829143Y29160338D01*
X17777000Y28898200D01*
X17777000Y19583200D01*
X9147000Y19583200D01*
X9147000Y28898200D01*
X9131243Y28977413D01*
X9128073Y29058109D01*
X9105415Y29107258D01*
X9094857Y29160338D01*
X9049988Y29227489D01*
X9016177Y29300832D01*
X8976435Y29337569D01*
X8946368Y29382568D01*
X8879217Y29427437D01*
X8819912Y29482258D01*
X8769136Y29500991D01*
X8724138Y29531057D01*
X8644929Y29546813D01*
X8569159Y29574766D01*
X8215294Y29630814D01*
X8215294Y35598292D01*
X8214705Y36845472D01*
X7738564Y37994979D01*
X7315880Y38276675D01*
X7136275Y38097070D01*
X7136275Y38456280D01*
X6854579Y38878964D01*
X5702108Y39355694D01*
X4454928Y39355105D01*
X3305421Y38878964D01*
X3023725Y38456280D01*
X5080000Y36400005D01*
X7136275Y38456280D01*
X7136275Y38097070D01*
X5259605Y36220400D01*
X7315880Y34164125D01*
X7738564Y34445821D01*
X8215294Y35598292D01*
X8215294Y29630814D01*
X7136275Y29801715D01*
X7136275Y33984520D01*
X5080000Y36040795D01*
X4900395Y35861190D01*
X4900395Y36220400D01*
X2844120Y38276675D01*
X2421436Y37994979D01*
X1944706Y36842508D01*
X1945295Y35595328D01*
X2421436Y34445821D01*
X2844120Y34164125D01*
X4900395Y36220400D01*
X4900395Y35861190D01*
X3023725Y33984520D01*
X3305421Y33561836D01*
X4457892Y33085106D01*
X5705072Y33085695D01*
X6854579Y33561836D01*
X7136275Y33984520D01*
X7136275Y29801715D01*
X6358685Y29924874D01*
X4461264Y30891654D01*
X2955484Y32397462D01*
X1988692Y34294891D01*
X1655539Y36398201D01*
X1988692Y38501510D01*
X2955484Y40398939D01*
X4461264Y41904747D01*
X6358685Y42871527D01*
X8569159Y43221634D01*
X8644929Y43249588D01*
X8724138Y43265343D01*
X8769136Y43295410D01*
X8819912Y43314142D01*
X8879217Y43368964D01*
X8946368Y43413832D01*
X8976435Y43458832D01*
X9016177Y43495568D01*
X9049988Y43568912D01*
X9094857Y43636062D01*
X9105415Y43689143D01*
X9128073Y43738291D01*
X9131243Y43818988D01*
X9147000Y43898200D01*
X9147000Y53213200D01*
X17777000Y53213200D01*
X17777000Y43898200D01*
X17829143Y43636062D01*
X17977632Y43413832D01*
X18199862Y43265343D01*
X18462000Y43213200D01*
X25412000Y43213200D01*
X25674138Y43265343D01*
X25896368Y43413832D01*
X26044857Y43636062D01*
X26097000Y43898200D01*
X26097000Y64274565D01*
X26299538Y63784385D01*
X26758927Y63324194D01*
X27359453Y63074834D01*
X27927702Y63074338D01*
X28538711Y62463329D01*
X28269974Y62061134D01*
X28155900Y61487645D01*
X28155900Y61197301D01*
X26862500Y59903900D01*
X26648979Y59584343D01*
X26574000Y59207400D01*
X26574000Y43332400D01*
X26648979Y42955457D01*
X26862500Y42635900D01*
X28606000Y40892400D01*
X28606000Y29121513D01*
X28585211Y29107622D01*
X28276874Y28646162D01*
X28168600Y28101833D01*
X28168600Y27320967D01*
X28276874Y26776638D01*
X28585211Y26315178D01*
X28606000Y26301288D01*
X28606000Y24028400D01*
X28606000Y21501513D01*
X28585211Y21487622D01*
X28276874Y21026162D01*
X28168600Y20481833D01*
X28168600Y19700967D01*
X28276874Y19156638D01*
X28585211Y18695178D01*
X28606000Y18681288D01*
X28606000Y15833936D01*
X28403997Y15794743D01*
X28191193Y15654953D01*
X28048743Y15443920D01*
X27998680Y15194280D01*
X27998680Y11653520D01*
X28045657Y11411397D01*
X28185447Y11198593D01*
X28396480Y11056143D01*
X28646120Y11006080D01*
X29431500Y11006080D01*
X29431500Y7078720D01*
X28646120Y7078720D01*
X28403997Y7031743D01*
X28191193Y6891953D01*
X28048743Y6680920D01*
X27998680Y6431280D01*
X27998680Y2890520D01*
X28045657Y2648397D01*
X28185447Y2435593D01*
X28396480Y2293143D01*
X28646120Y2243080D01*
X32186880Y2243080D01*
X32429003Y2290057D01*
X32641807Y2429847D01*
X32784257Y2640880D01*
X32834320Y2890520D01*
X32834320Y6431280D01*
X32787343Y6673403D01*
X32647553Y6886207D01*
X32436520Y7028657D01*
X32186880Y7078720D01*
X31401500Y7078720D01*
X31401500Y11006080D01*
X32186880Y11006080D01*
X32429003Y11053057D01*
X32641807Y11192847D01*
X32784257Y11403880D01*
X32834320Y11653520D01*
X32834320Y15194280D01*
X32787343Y15436403D01*
X32647553Y15649207D01*
X32436520Y15791657D01*
X32186880Y15841720D01*
X30576000Y15841720D01*
X30576000Y18681288D01*
X30596789Y18695178D01*
X30861000Y19090599D01*
X31125211Y18695178D01*
X31586671Y18386841D01*
X32131000Y18278567D01*
X32675329Y18386841D01*
X33136789Y18695178D01*
X33401000Y19090599D01*
X33665211Y18695178D01*
X33686000Y18681288D01*
X33686000Y8026400D01*
X33760979Y7649457D01*
X33974500Y7329900D01*
X35787454Y5516946D01*
X35631539Y5141459D01*
X35630704Y4184539D01*
X35996129Y3300142D01*
X36672183Y2622907D01*
X37555941Y2255939D01*
X38512861Y2255104D01*
X39397258Y2620529D01*
X40074493Y3296583D01*
X40441461Y4180341D01*
X40442296Y5137261D01*
X40285452Y5516853D01*
X40449500Y5680900D01*
X40571680Y5558720D01*
X40571680Y2763520D01*
X40618657Y2521397D01*
X40758447Y2308593D01*
X40969480Y2166143D01*
X41219120Y2116080D01*
X44759880Y2116080D01*
X45002003Y2163057D01*
X45214807Y2302847D01*
X45357257Y2513880D01*
X45407320Y2763520D01*
X45407320Y6304280D01*
X45360343Y6546403D01*
X45220553Y6759207D01*
X45009520Y6901657D01*
X44759880Y6951720D01*
X41964680Y6951720D01*
X41907509Y7008891D01*
X42020300Y7177693D01*
X42125964Y7708900D01*
X42020300Y8240107D01*
X41719396Y8690442D01*
X41287687Y8978900D01*
X41719396Y9267358D01*
X42020300Y9717693D01*
X42125964Y10248900D01*
X42020300Y10780107D01*
X41958378Y10872779D01*
X41964680Y10879080D01*
X44759880Y10879080D01*
X45002003Y10926057D01*
X45214807Y11065847D01*
X45357257Y11276880D01*
X45407320Y11526520D01*
X45407320Y15067280D01*
X45360343Y15309403D01*
X45220553Y15522207D01*
X45009520Y15664657D01*
X44759880Y15714720D01*
X43276000Y15714720D01*
X43276000Y18681288D01*
X43296789Y18695178D01*
X43561000Y19090599D01*
X43825211Y18695178D01*
X44286671Y18386841D01*
X44831000Y18278567D01*
X45375329Y18386841D01*
X45836789Y18695178D01*
X46101000Y19090599D01*
X46365211Y18695178D01*
X46826671Y18386841D01*
X47371000Y18278567D01*
X47915329Y18386841D01*
X48376789Y18695178D01*
X48685126Y19156638D01*
X48793400Y19700967D01*
X48793400Y20481833D01*
X48685126Y21026162D01*
X48376789Y21487622D01*
X48356000Y21501513D01*
X48356000Y24028400D01*
X48356000Y25959299D01*
X48400523Y25967937D01*
X48613327Y26107727D01*
X48755777Y26318760D01*
X48805840Y26568400D01*
X48805840Y26726400D01*
X51154000Y26726400D01*
X52296560Y25583840D01*
X52296560Y25029400D01*
X52343537Y24787277D01*
X52483327Y24574473D01*
X52694360Y24432023D01*
X52944000Y24381960D01*
X54244000Y24381960D01*
X54486123Y24428937D01*
X54698927Y24568727D01*
X54841377Y24779760D01*
X54891440Y25029400D01*
X54891440Y25583840D01*
X56097500Y26789900D01*
X58478680Y26789900D01*
X58478680Y26004520D01*
X58525657Y25762397D01*
X58665447Y25549593D01*
X58876480Y25407143D01*
X59126120Y25357080D01*
X62666880Y25357080D01*
X62909003Y25404057D01*
X63121807Y25543847D01*
X63264257Y25754880D01*
X63314320Y26004520D01*
X63314320Y26789900D01*
X67241680Y26789900D01*
X67241680Y26004520D01*
X67288657Y25762397D01*
X67428447Y25549593D01*
X67639480Y25407143D01*
X67889120Y25357080D01*
X71429880Y25357080D01*
X71672003Y25404057D01*
X71884807Y25543847D01*
X72027257Y25754880D01*
X72069274Y25964400D01*
X74036180Y25964400D01*
X74036180Y25179020D01*
X74083157Y24936897D01*
X74222947Y24724093D01*
X74433980Y24581643D01*
X74683620Y24531580D01*
X78224380Y24531580D01*
X78466503Y24578557D01*
X78679307Y24718347D01*
X78821757Y24929380D01*
X78871820Y25179020D01*
X78871820Y28719780D01*
X78824843Y28961903D01*
X78685053Y29174707D01*
X78474020Y29317157D01*
X78224380Y29367220D01*
X74683620Y29367220D01*
X74441497Y29320243D01*
X74228693Y29180453D01*
X74086243Y28969420D01*
X74036180Y28719780D01*
X74036180Y27934400D01*
X72077320Y27934400D01*
X72077320Y29545280D01*
X72030343Y29787403D01*
X71890553Y30000207D01*
X71679520Y30142657D01*
X71429880Y30192720D01*
X67889120Y30192720D01*
X67646997Y30145743D01*
X67434193Y30005953D01*
X67291743Y29794920D01*
X67241680Y29545280D01*
X67241680Y28759900D01*
X63314320Y28759900D01*
X63314320Y29545280D01*
X63267343Y29787403D01*
X63127553Y30000207D01*
X62916520Y30142657D01*
X62666880Y30192720D01*
X59126120Y30192720D01*
X58883997Y30145743D01*
X58671193Y30005953D01*
X58528743Y29794920D01*
X58478680Y29545280D01*
X58478680Y28759900D01*
X55689500Y28759900D01*
X55312557Y28684921D01*
X54993000Y28471401D01*
X53593999Y27072401D01*
X52258500Y28407900D01*
X51938943Y28621421D01*
X51562000Y28696400D01*
X48805840Y28696400D01*
X48805840Y28854400D01*
X48758863Y29096523D01*
X48619073Y29309327D01*
X48408040Y29451777D01*
X48158400Y29501840D01*
X46583600Y29501840D01*
X46341477Y29454863D01*
X46128673Y29315073D01*
X45986223Y29104040D01*
X45952279Y28934779D01*
X45836789Y29107622D01*
X45375329Y29415959D01*
X44831000Y29524233D01*
X44286671Y29415959D01*
X43825211Y29107622D01*
X43561000Y28712202D01*
X43296789Y29107622D01*
X42835329Y29415959D01*
X42291000Y29524233D01*
X41746671Y29415959D01*
X41285211Y29107622D01*
X41021246Y28712571D01*
X41016525Y28728662D01*
X40666986Y29162591D01*
X40177996Y29429727D01*
X40098060Y29446410D01*
X39878000Y29324252D01*
X39878000Y27838400D01*
X39898000Y27838400D01*
X39898000Y27584400D01*
X39878000Y27584400D01*
X39878000Y26098548D01*
X40098060Y25976390D01*
X40177996Y25993073D01*
X40666986Y26260209D01*
X40862717Y26503197D01*
X40656284Y26006048D01*
X40655716Y25355605D01*
X40797112Y25013400D01*
X39624000Y25013400D01*
X39624000Y26098548D01*
X39624000Y27584400D01*
X39624000Y27838400D01*
X39624000Y29324252D01*
X39403940Y29446410D01*
X39324004Y29429727D01*
X38835014Y29162591D01*
X38485475Y28728662D01*
X38481000Y28713411D01*
X38476525Y28728662D01*
X38126986Y29162591D01*
X37637996Y29429727D01*
X37558060Y29446410D01*
X37338000Y29324252D01*
X37338000Y27838400D01*
X38328600Y27838400D01*
X38633400Y27838400D01*
X39624000Y27838400D01*
X39624000Y27584400D01*
X38633400Y27584400D01*
X38328600Y27584400D01*
X37338000Y27584400D01*
X37338000Y26098548D01*
X37558060Y25976390D01*
X37637996Y25993073D01*
X38126986Y26260209D01*
X38476525Y26694138D01*
X38481000Y26709390D01*
X38485475Y26694138D01*
X38835014Y26260209D01*
X39324004Y25993073D01*
X39403940Y25976390D01*
X39624000Y26098548D01*
X39624000Y25013400D01*
X36107764Y25013400D01*
X36280316Y25428952D01*
X36280884Y26079395D01*
X36112607Y26486655D01*
X36295014Y26260209D01*
X36784004Y25993073D01*
X36863940Y25976390D01*
X37084000Y26098548D01*
X37084000Y27584400D01*
X37064000Y27584400D01*
X37064000Y27838400D01*
X37084000Y27838400D01*
X37084000Y29324252D01*
X36863940Y29446410D01*
X36784004Y29429727D01*
X36295014Y29162591D01*
X35945475Y28728662D01*
X35940753Y28712571D01*
X35676789Y29107622D01*
X35215329Y29415959D01*
X34671000Y29524233D01*
X34126671Y29415959D01*
X33665211Y29107622D01*
X33401000Y28712202D01*
X33136789Y29107622D01*
X32675329Y29415959D01*
X32131000Y29524233D01*
X31586671Y29415959D01*
X31125211Y29107622D01*
X30861000Y28712202D01*
X30596789Y29107622D01*
X30576000Y29121513D01*
X30576000Y41300400D01*
X30501021Y41677343D01*
X30287500Y41996900D01*
X28544000Y43740400D01*
X28544000Y44894558D01*
X28594830Y44818485D01*
X29081011Y44493629D01*
X29654500Y44379555D01*
X30227989Y44493629D01*
X30714170Y44818485D01*
X30924500Y45133266D01*
X31134830Y44818485D01*
X31621011Y44493629D01*
X32194500Y44379555D01*
X32767989Y44493629D01*
X33254170Y44818485D01*
X33464500Y45133266D01*
X33674830Y44818485D01*
X34161011Y44493629D01*
X34734500Y44379555D01*
X35307989Y44493629D01*
X35794170Y44818485D01*
X36000960Y45127970D01*
X36372464Y44712168D01*
X36899709Y44458191D01*
X36915474Y44455542D01*
X37147500Y44576683D01*
X37147500Y45935900D01*
X37127500Y45935900D01*
X37127500Y46189900D01*
X37147500Y46189900D01*
X37147500Y47549117D01*
X36915474Y47670258D01*
X36899709Y47667609D01*
X36372464Y47413632D01*
X36000960Y46997831D01*
X35794170Y47307315D01*
X35307989Y47632171D01*
X34734500Y47746245D01*
X34161011Y47632171D01*
X33674830Y47307315D01*
X33464500Y46992535D01*
X33254170Y47307315D01*
X32767989Y47632171D01*
X32194500Y47746245D01*
X31621011Y47632171D01*
X31134830Y47307315D01*
X30924500Y46992535D01*
X30714170Y47307315D01*
X30227989Y47632171D01*
X29654500Y47746245D01*
X29081011Y47632171D01*
X28594830Y47307315D01*
X28544000Y47231243D01*
X28544000Y58799400D01*
X29412326Y59667727D01*
X29654500Y59619555D01*
X30227989Y59733629D01*
X30714170Y60058485D01*
X30920960Y60367970D01*
X31292464Y59952168D01*
X31819709Y59698191D01*
X31835474Y59695542D01*
X32067500Y59816683D01*
X32067500Y61175900D01*
X32047500Y61175900D01*
X32047500Y61429900D01*
X32067500Y61429900D01*
X32067500Y62789117D01*
X31884077Y62884883D01*
X32242958Y63033535D01*
X32341557Y63300337D01*
X31369000Y64272895D01*
X31354857Y64258753D01*
X31175252Y64438358D01*
X31189395Y64452500D01*
X30216837Y65425057D01*
X29950035Y65326458D01*
X29723599Y64716918D01*
X29747659Y64067123D01*
X29766568Y64021472D01*
X29320280Y64467760D01*
X29320774Y65032734D01*
X29282343Y65125744D01*
X29872000Y65715400D01*
X30437366Y65715400D01*
X30396443Y65604663D01*
X31369000Y64632105D01*
X32341557Y65604663D01*
X32300633Y65715400D01*
X34925000Y65715400D01*
X35301943Y65790379D01*
X35621500Y66003900D01*
X37306560Y67688960D01*
X37861000Y67688960D01*
X38103123Y67735937D01*
X38315927Y67875727D01*
X38458377Y68086760D01*
X38508440Y68336400D01*
X38508440Y69636400D01*
X38461463Y69878523D01*
X38321673Y70091327D01*
X38110640Y70233777D01*
X37861000Y70283840D01*
X36561000Y70283840D01*
X36318877Y70236863D01*
X36106073Y70097073D01*
X35963623Y69886040D01*
X35913560Y69636400D01*
X35913560Y69081960D01*
X35264472Y68432873D01*
X35264884Y68903795D01*
X35016494Y69504943D01*
X34556963Y69965278D01*
X33956248Y70214716D01*
X33355089Y70215241D01*
X33132783Y70363781D01*
X32755840Y70438760D01*
X32695222Y70438760D01*
X32421260Y70713200D01*
X53435091Y70713200D01*
X58829708Y70288642D01*
X64065267Y69031712D01*
X69039754Y66971174D01*
X72796134Y64669280D01*
X72789421Y64670081D01*
X72173401Y64497024D01*
X72061041Y64428476D01*
X71966227Y64164880D01*
X73269974Y62861133D01*
X73284116Y62875276D01*
X73463721Y62695671D01*
X73449579Y62681528D01*
X74753326Y61377781D01*
X75016922Y61472595D01*
X75085470Y61584955D01*
X75258527Y62200975D01*
X75183206Y62831844D01*
X77724834Y60661035D01*
X79109915Y59039354D01*
X78812929Y59206071D01*
X78177575Y59281927D01*
X77561555Y59108870D01*
X77449195Y59040322D01*
X77354381Y58776726D01*
X78658128Y57472979D01*
X78672270Y57487122D01*
X78851875Y57307517D01*
X78837733Y57293374D01*
X80141480Y55989627D01*
X80405076Y56084441D01*
X80473624Y56196801D01*
X80646681Y56812821D01*
X80587380Y57309507D01*
X81221711Y56566820D01*
X84034973Y51975955D01*
X84235600Y51491609D01*
X84158409Y51414418D01*
X84102729Y51645011D01*
X83619922Y51813022D01*
X83109572Y51783483D01*
X82775271Y51645011D01*
X82719590Y51414416D01*
X83439000Y50695005D01*
X83453142Y50709148D01*
X83632747Y50529543D01*
X83618605Y50515400D01*
X84338016Y49795990D01*
X84568611Y49851671D01*
X84726708Y50305990D01*
X86095511Y47001468D01*
X87352441Y41765919D01*
X87774882Y36398201D01*
M02*
