  0
SECTION
  2
BLOCKS
  0
ENDSEC
  0
SECTION
  2
ENTITIES
  0
LINE
  8
0
 10
-12.5
 20
0
 11
-12.1329
 21
-2.31763
  0
LINE
  8
0
 10
-12.1329
 20
-2.31763
 11
-11.0676
 21
-4.40839
  0
LINE
  8
0
 10
-11.0676
 20
-4.40839
 11
-9.40839
 21
-6.06763
  0
LINE
  8
0
 10
-9.40839
 20
-6.06763
 11
-7.31763
 21
-7.13292
  0
LINE
  8
0
 10
-7.31763
 20
-7.13292
 11
-5
 21
-7.5
  0
LINE
  8
0
 10
-5
 20
-7.5
 11
-5
 21
-17.5
  0
LINE
  8
0
 10
-5
 20
-17.5
 11
5
 21
-17.5
  0
LINE
  8
0
 10
5
 20
-17.5
 11
5
 21
-7.5
  0
LINE
  8
0
 10
5
 20
-7.5
 11
11.95
 21
-7.5
  0
LINE
  8
0
 10
11.95
 20
-7.5
 11
11.95
 21
-35
  0
LINE
  8
0
 10
11.95
 20
-35
 11
40
 21
-35
  0
LINE
  8
0
 10
40
 20
-35
 11
45.4752
 21
-34.5691
  0
LINE
  8
0
 10
45.4752
 20
-34.5691
 11
50.8156
 21
-33.287
  0
LINE
  8
0
 10
50.8156
 20
-33.287
 11
55.8897
 21
-31.1852
  0
LINE
  8
0
 10
55.8897
 20
-31.1852
 11
60.5725
 21
-28.3156
  0
LINE
  8
0
 10
60.5725
 20
-28.3156
 11
64.7487
 21
-24.7487
  0
LINE
  8
0
 10
64.7487
 20
-24.7487
 11
68.3156
 21
-20.5725
  0
LINE
  8
0
 10
68.3156
 20
-20.5725
 11
71.1852
 21
-15.8897
  0
LINE
  8
0
 10
71.1852
 20
-15.8897
 11
73.287
 21
-10.8156
  0
LINE
  8
0
 10
73.287
 20
-10.8156
 11
74.5691
 21
-5.47521
  0
LINE
  8
0
 10
74.5691
 20
-5.47521
 11
75
 21
0
  0
LINE
  8
0
 10
75
 20
0
 11
74.5691
 21
5.47521
  0
LINE
  8
0
 10
74.5691
 20
5.47521
 11
73.287
 21
10.8156
  0
LINE
  8
0
 10
73.287
 20
10.8156
 11
71.1852
 21
15.8897
  0
LINE
  8
0
 10
71.1852
 20
15.8897
 11
68.3156
 21
20.5725
  0
LINE
  8
0
 10
68.3156
 20
20.5725
 11
64.7487
 21
24.7487
  0
LINE
  8
0
 10
64.7487
 20
24.7487
 11
60.5725
 21
28.3156
  0
LINE
  8
0
 10
60.5725
 20
28.3156
 11
55.8897
 21
31.1852
  0
LINE
  8
0
 10
55.8897
 20
31.1852
 11
50.8156
 21
33.287
  0
LINE
  8
0
 10
50.8156
 20
33.287
 11
45.4752
 21
34.5691
  0
LINE
  8
0
 10
45.4752
 20
34.5691
 11
40
 21
35
  0
LINE
  8
0
 10
40
 20
35
 11
11.95
 21
35
  0
LINE
  8
0
 10
11.95
 20
35
 11
11.95
 21
7.5
  0
LINE
  8
0
 10
11.95
 20
7.5
 11
5
 21
7.5
  0
LINE
  8
0
 10
5
 20
7.5
 11
5
 21
17.5
  0
LINE
  8
0
 10
5
 20
17.5
 11
-5
 21
17.5
  0
LINE
  8
0
 10
-5
 20
17.5
 11
-5
 21
7.5
  0
LINE
  8
0
 10
-5
 20
7.5
 11
-7.31763
 21
7.13292
  0
LINE
  8
0
 10
-7.31763
 20
7.13292
 11
-9.40839
 21
6.06763
  0
LINE
  8
0
 10
-9.40839
 20
6.06763
 11
-11.0676
 21
4.40839
  0
LINE
  8
0
 10
-11.0676
 20
4.40839
 11
-12.1329
 21
2.31763
  0
LINE
  8
0
 10
-12.1329
 20
2.31763
 11
-12.5
 21
0
  0
ENDSEC
  0
SECTION
  2
OBJECTS
  0
DICTIONARY
  0
ENDSEC
  0
EOF
