  0
SECTION
  2
HEADER
  9
$ANGBASE
  50
0.0
  9
$ANGDIR
  70
  1
  9
$MEASUREMENT
  70
0
  0
ENDSEC
  0
SECTION
  2
TABLES
  0
TABLE
  2
LTYPE
  70
1
  0
LTYPE
  2
CONTINUOUS
  70
0
  3
Solid line
  72
65
  73
0
  40
0.0
  0
ENDTAB
  0
TABLE
  2
STYLE
  70
4
  0
STYLE
  2
KICAD
  70
0
  40
0
  41
1
  42
1
  50
0
  71
0
  3
isocp.shx
  0
STYLE
  2
KICADB
  70
0
  40
0
  41
1
  42
1
  50
0
  71
0
  3
isocp.shx
  0
STYLE
  2
KICADI
  70
0
  40
0
  41
1
  42
1
  50
15
  71
0
  3
isocp.shx
  0
STYLE
  2
KICADBI
  70
0
  40
0
  41
1
  42
1
  50
15
  71
0
  3
isocp.shx
  0
ENDTAB
  0
TABLE
  2
LAYER
  70
30
  0
LAYER
  2
BLACK
  70
0
  62
7
  6
CONTINUOUS
  0
LAYER
  2
GRAY1
  70
0
  62
251
  6
CONTINUOUS
  0
LAYER
  2
GRAY2
  70
0
  62
8
  6
CONTINUOUS
  0
LAYER
  2
GRAY3
  70
0
  62
9
  6
CONTINUOUS
  0
LAYER
  2
WHITE
  70
0
  62
7
  6
CONTINUOUS
  0
LAYER
  2
LYELLOW
  70
0
  62
51
  6
CONTINUOUS
  0
LAYER
  2
BLUE1
  70
0
  62
178
  6
CONTINUOUS
  0
LAYER
  2
GREEN1
  70
0
  62
98
  6
CONTINUOUS
  0
LAYER
  2
CYAN1
  70
0
  62
138
  6
CONTINUOUS
  0
LAYER
  2
RED1
  70
0
  62
18
  6
CONTINUOUS
  0
LAYER
  2
MAGENTA1
  70
0
  62
228
  6
CONTINUOUS
  0
LAYER
  2
BROWN1
  70
0
  62
58
  6
CONTINUOUS
  0
LAYER
  2
BLUE2
  70
0
  62
5
  6
CONTINUOUS
  0
LAYER
  2
GREEN2
  70
0
  62
3
  6
CONTINUOUS
  0
LAYER
  2
CYAN2
  70
0
  62
4
  6
CONTINUOUS
  0
LAYER
  2
RED2
  70
0
  62
1
  6
CONTINUOUS
  0
LAYER
  2
MAGENTA2
  70
0
  62
6
  6
CONTINUOUS
  0
LAYER
  2
BROWN2
  70
0
  62
54
  6
CONTINUOUS
  0
LAYER
  2
BLUE3
  70
0
  62
171
  6
CONTINUOUS
  0
LAYER
  2
GREEN3
  70
0
  62
91
  6
CONTINUOUS
  0
LAYER
  2
CYAN3
  70
0
  62
131
  6
CONTINUOUS
  0
LAYER
  2
RED3
  70
0
  62
11
  6
CONTINUOUS
  0
LAYER
  2
MAGENTA3
  70
0
  62
221
  6
CONTINUOUS
  0
LAYER
  2
YELLOW3
  70
0
  62
2
  6
CONTINUOUS
  0
LAYER
  2
BLUE4
  70
0
  62
5
  6
CONTINUOUS
  0
LAYER
  2
GREEN4
  70
0
  62
3
  6
CONTINUOUS
  0
LAYER
  2
CYAN4
  70
0
  62
4
  6
CONTINUOUS
  0
LAYER
  2
RED4
  70
0
  62
1
  6
CONTINUOUS
  0
LAYER
  2
MAGENTA4
  70
0
  62
6
  6
CONTINUOUS
  0
LAYER
  2
YELLOW4
  70
0
  62
2
  6
CONTINUOUS
  0
ENDTAB
  0
ENDSEC
  0
SECTION
  2
ENTITIES
0
LINE
8
Black
10
88.0809
20
30.9191
11
88.08
21
30.9153
0
LINE
8
Black
10
88.08
20
30.9153
11
88.0797
21
30.9113
0
LINE
8
Black
10
88.0797
20
30.9113
11
86.7976
21
25.5709
0
LINE
8
Black
10
86.7976
20
25.5709
11
86.796
21
25.5673
0
LINE
8
Black
10
86.796
20
25.5673
11
86.7952
21
25.5635
0
LINE
8
Black
10
86.7952
20
25.5635
11
84.6934
21
20.4894
0
LINE
8
Black
10
84.6934
20
20.4894
11
84.6913
21
20.486
0
LINE
8
Black
10
84.6913
20
20.486
11
84.6898
21
20.4824
0
LINE
8
Black
10
84.6898
20
20.4824
11
81.8202
21
15.7996
0
LINE
8
Black
10
81.8202
20
15.7996
11
81.8176
21
15.7966
0
LINE
8
Black
10
81.8176
20
15.7966
11
81.8156
21
15.7932
0
LINE
8
Black
10
81.8156
20
15.7932
11
78.2487
21
11.617
0
LINE
8
Black
10
78.2487
20
11.617
11
78.2457
21
11.6145
0
LINE
8
Black
10
78.2457
20
11.6145
11
78.2432
21
11.6115
0
LINE
8
Black
10
78.2432
20
11.6115
11
74.067
21
8.04458
0
LINE
8
Black
10
74.067
20
8.04458
11
74.0636
21
8.04258
0
LINE
8
Black
10
74.0636
20
8.04258
11
74.0606
21
8.03997
0
LINE
8
Black
10
74.0606
20
8.03997
11
69.3778
21
5.17037
0
LINE
8
Black
10
69.3778
20
5.17037
11
69.3742
21
5.16892
0
LINE
8
Black
10
69.3742
20
5.16892
11
69.3708
21
5.16681
0
LINE
8
Black
10
69.3708
20
5.16681
11
64.2967
21
3.06501
0
LINE
8
Black
10
64.2967
20
3.06501
11
64.2929
21
3.06415
0
LINE
8
Black
10
64.2929
20
3.06415
11
64.2893
21
3.06258
0
LINE
8
Black
10
64.2893
20
3.06258
11
58.9489
21
1.78048
0
LINE
8
Black
10
58.9489
20
1.78048
11
58.9449
21
1.78024
0
LINE
8
Black
10
58.9449
20
1.78024
11
58.9411
21
1.77925
0
LINE
8
Black
10
58.9411
20
1.77925
11
53.4659
21
1.34835
0
LINE
8
Black
10
53.4659
20
1.34835
11
53.4639
21
1.34854
0
LINE
8
Black
10
53.4639
20
1.34854
11
53.462
21
1.3482
0
LINE
8
Black
10
53.462
20
1.3482
11
25.412
21
1.3482
0
LINE
8
Black
10
25.412
20
1.3482
11
25.4077
21
1.34896
0
LINE
8
Black
10
25.4077
20
1.34896
11
25.4033
21
1.34896
0
LINE
8
Black
10
25.4033
20
1.34896
11
25.3992
21
1.35045
0
LINE
8
Black
10
25.3992
20
1.35045
11
25.3949
21
1.35121
0
LINE
8
Black
10
25.3949
20
1.35121
11
25.3911
21
1.3534
0
LINE
8
Black
10
25.3911
20
1.3534
11
25.387
21
1.3549
0
LINE
8
Black
10
25.387
20
1.3549
11
25.3836
21
1.35771
0
LINE
8
Black
10
25.3836
20
1.35771
11
25.3799
21
1.3599
0
LINE
8
Black
10
25.3799
20
1.3599
11
25.377
21
1.36325
0
LINE
8
Black
10
25.377
20
1.36325
11
25.3737
21
1.36606
0
LINE
8
Black
10
25.3737
20
1.36606
11
25.3715
21
1.36985
0
LINE
8
Black
10
25.3715
20
1.36985
11
25.3687
21
1.3732
0
LINE
8
Black
10
25.3687
20
1.3732
11
25.3672
21
1.37731
0
LINE
8
Black
10
25.3672
20
1.37731
11
25.365
21
1.3811
0
LINE
8
Black
10
25.365
20
1.3811
11
25.3643
21
1.38541
0
LINE
8
Black
10
25.3643
20
1.38541
11
25.3628
21
1.38952
0
LINE
8
Black
10
25.3628
20
1.38952
11
25.3628
21
1.39389
0
LINE
8
Black
10
25.3628
20
1.39389
11
25.362
21
1.3982
0
LINE
8
Black
10
25.362
20
1.3982
11
25.362
21
28.8482
0
LINE
8
Black
10
25.362
20
28.8482
11
18.512
21
28.8482
0
LINE
8
Black
10
18.512
20
28.8482
11
18.512
21
18.8982
0
LINE
8
Black
10
18.512
20
18.8982
11
18.5112
21
18.8939
0
LINE
8
Black
10
18.5112
20
18.8939
11
18.5112
21
18.8895
0
LINE
8
Black
10
18.5112
20
18.8895
11
18.5097
21
18.8854
0
LINE
8
Black
10
18.5097
20
18.8854
11
18.509
21
18.8811
0
LINE
8
Black
10
18.509
20
18.8811
11
18.5068
21
18.8773
0
LINE
8
Black
10
18.5068
20
18.8773
11
18.5053
21
18.8732
0
LINE
8
Black
10
18.5053
20
18.8732
11
18.5025
21
18.8698
0
LINE
8
Black
10
18.5025
20
18.8698
11
18.5003
21
18.8661
0
LINE
8
Black
10
18.5003
20
18.8661
11
18.4969
21
18.8633
0
LINE
8
Black
10
18.4969
20
18.8633
11
18.4941
21
18.8599
0
LINE
8
Black
10
18.4941
20
18.8599
11
18.4903
21
18.8577
0
LINE
8
Black
10
18.4903
20
18.8577
11
18.487
21
18.8549
0
LINE
8
Black
10
18.487
20
18.8549
11
18.4829
21
18.8534
0
LINE
8
Black
10
18.4829
20
18.8534
11
18.4791
21
18.8512
0
LINE
8
Black
10
18.4791
20
18.8512
11
18.4748
21
18.8505
0
LINE
8
Black
10
18.4748
20
18.8505
11
18.4707
21
18.849
0
LINE
8
Black
10
18.4707
20
18.849
11
18.4663
21
18.849
0
LINE
8
Black
10
18.4663
20
18.849
11
18.462
21
18.8482
0
LINE
8
Black
10
18.462
20
18.8482
11
8.462
21
18.8482
0
LINE
8
Black
10
8.462
20
18.8482
11
8.45769
21
18.849
0
LINE
8
Black
10
8.45769
20
18.849
11
8.45332
21
18.849
0
LINE
8
Black
10
8.45332
20
18.849
11
8.44921
21
18.8505
0
LINE
8
Black
10
8.44921
20
18.8505
11
8.4449
21
18.8512
0
LINE
8
Black
10
8.4449
20
18.8512
11
8.44111
21
18.8534
0
LINE
8
Black
10
8.44111
20
18.8534
11
8.437
21
18.8549
0
LINE
8
Black
10
8.437
20
18.8549
11
8.43365
21
18.8577
0
LINE
8
Black
10
8.43365
20
18.8577
11
8.42986
21
18.8599
0
LINE
8
Black
10
8.42986
20
18.8599
11
8.42705
21
18.8633
0
LINE
8
Black
10
8.42705
20
18.8633
11
8.4237
21
18.8661
0
LINE
8
Black
10
8.4237
20
18.8661
11
8.42151
21
18.8698
0
LINE
8
Black
10
8.42151
20
18.8698
11
8.4187
21
18.8732
0
LINE
8
Black
10
8.4187
20
18.8732
11
8.4172
21
18.8773
0
LINE
8
Black
10
8.4172
20
18.8773
11
8.41502
21
18.8811
0
LINE
8
Black
10
8.41502
20
18.8811
11
8.41425
21
18.8854
0
LINE
8
Black
10
8.41425
20
18.8854
11
8.41276
21
18.8895
0
LINE
8
Black
10
8.41276
20
18.8895
11
8.41276
21
18.8939
0
LINE
8
Black
10
8.41276
20
18.8939
11
8.412
21
18.8982
0
LINE
8
Black
10
8.412
20
18.8982
11
8.412
21
28.8555
0
LINE
8
Black
10
8.412
20
28.8555
11
6.13655
21
29.2159
0
LINE
8
Black
10
6.13655
20
29.2159
11
6.12915
21
29.2184
0
LINE
8
Black
10
6.12915
20
29.2184
11
6.12167
21
29.2207
0
LINE
8
Black
10
6.12167
20
29.2207
11
4.03091
21
30.286
0
LINE
8
Black
10
4.03091
20
30.286
11
4.02467
21
30.2907
0
LINE
8
Black
10
4.02467
20
30.2907
11
4.01825
21
30.2952
0
LINE
8
Black
10
4.01825
20
30.2952
11
2.35904
21
31.9545
0
LINE
8
Black
10
2.35904
20
31.9545
11
2.35455
21
31.9609
0
LINE
8
Black
10
2.35455
20
31.9609
11
2.34985
21
31.9671
0
LINE
8
Black
10
2.34985
20
31.9671
11
1.28455
21
34.0579
0
LINE
8
Black
10
1.28455
20
34.0579
11
1.28226
21
34.0654
0
LINE
8
Black
10
1.28226
20
34.0654
11
1.27972
21
34.0727
0
LINE
8
Black
10
1.27972
20
34.0727
11
0.912616
21
36.3904
0
LINE
8
Black
10
0.912616
20
36.3904
11
0.912752
21
36.3982
0
LINE
8
Black
10
0.912752
20
36.3982
11
0.912616
21
36.406
0
LINE
8
Black
10
0.912616
20
36.406
11
1.27972
21
38.7237
0
LINE
8
Black
10
1.27972
20
38.7237
11
1.28226
21
38.731
0
LINE
8
Black
10
1.28226
20
38.731
11
1.28455
21
38.7385
0
LINE
8
Black
10
1.28455
20
38.7385
11
2.34985
21
40.8293
0
LINE
8
Black
10
2.34985
20
40.8293
11
2.35455
21
40.8355
0
LINE
8
Black
10
2.35455
20
40.8355
11
2.35904
21
40.8419
0
LINE
8
Black
10
2.35904
20
40.8419
11
4.01825
21
42.5012
0
LINE
8
Black
10
4.01825
20
42.5012
11
4.02467
21
42.5057
0
LINE
8
Black
10
4.02467
20
42.5057
11
4.03091
21
42.5104
0
LINE
8
Black
10
4.03091
20
42.5104
11
6.12167
21
43.5757
0
LINE
8
Black
10
6.12167
20
43.5757
11
6.12915
21
43.578
0
LINE
8
Black
10
6.12915
20
43.578
11
6.13655
21
43.5805
0
LINE
8
Black
10
6.13655
20
43.5805
11
8.412
21
43.9409
0
LINE
8
Black
10
8.412
20
43.9409
11
8.412
21
53.8982
0
LINE
8
Black
10
8.412
20
53.8982
11
8.41276
21
53.9025
0
LINE
8
Black
10
8.41276
20
53.9025
11
8.41276
21
53.9069
0
LINE
8
Black
10
8.41276
20
53.9069
11
8.41425
21
53.911
0
LINE
8
Black
10
8.41425
20
53.911
11
8.41502
21
53.9153
0
LINE
8
Black
10
8.41502
20
53.9153
11
8.4172
21
53.9191
0
LINE
8
Black
10
8.4172
20
53.9191
11
8.4187
21
53.9232
0
LINE
8
Black
10
8.4187
20
53.9232
11
8.42151
21
53.9266
0
LINE
8
Black
10
8.42151
20
53.9266
11
8.4237
21
53.9303
0
LINE
8
Black
10
8.4237
20
53.9303
11
8.42705
21
53.9332
0
LINE
8
Black
10
8.42705
20
53.9332
11
8.42986
21
53.9365
0
LINE
8
Black
10
8.42986
20
53.9365
11
8.43365
21
53.9387
0
LINE
8
Black
10
8.43365
20
53.9387
11
8.437
21
53.9415
0
LINE
8
Black
10
8.437
20
53.9415
11
8.44111
21
53.943
0
LINE
8
Black
10
8.44111
20
53.943
11
8.4449
21
53.9452
0
LINE
8
Black
10
8.4449
20
53.9452
11
8.44921
21
53.9459
0
LINE
8
Black
10
8.44921
20
53.9459
11
8.45332
21
53.9474
0
LINE
8
Black
10
8.45332
20
53.9474
11
8.45769
21
53.9474
0
LINE
8
Black
10
8.45769
20
53.9474
11
8.462
21
53.9482
0
LINE
8
Black
10
8.462
20
53.9482
11
18.462
21
53.9482
0
LINE
8
Black
10
18.462
20
53.9482
11
18.4663
21
53.9474
0
LINE
8
Black
10
18.4663
20
53.9474
11
18.4707
21
53.9474
0
LINE
8
Black
10
18.4707
20
53.9474
11
18.4748
21
53.9459
0
LINE
8
Black
10
18.4748
20
53.9459
11
18.4791
21
53.9452
0
LINE
8
Black
10
18.4791
20
53.9452
11
18.4829
21
53.943
0
LINE
8
Black
10
18.4829
20
53.943
11
18.487
21
53.9415
0
LINE
8
Black
10
18.487
20
53.9415
11
18.4903
21
53.9387
0
LINE
8
Black
10
18.4903
20
53.9387
11
18.4941
21
53.9365
0
LINE
8
Black
10
18.4941
20
53.9365
11
18.4969
21
53.9332
0
LINE
8
Black
10
18.4969
20
53.9332
11
18.5003
21
53.9303
0
LINE
8
Black
10
18.5003
20
53.9303
11
18.5025
21
53.9266
0
LINE
8
Black
10
18.5025
20
53.9266
11
18.5053
21
53.9232
0
LINE
8
Black
10
18.5053
20
53.9232
11
18.5068
21
53.9191
0
LINE
8
Black
10
18.5068
20
53.9191
11
18.509
21
53.9153
0
LINE
8
Black
10
18.509
20
53.9153
11
18.5097
21
53.911
0
LINE
8
Black
10
18.5097
20
53.911
11
18.5112
21
53.9069
0
LINE
8
Black
10
18.5112
20
53.9069
11
18.5112
21
53.9025
0
LINE
8
Black
10
18.5112
20
53.9025
11
18.512
21
53.8982
0
LINE
8
Black
10
18.512
20
53.8982
11
18.512
21
43.9482
0
LINE
8
Black
10
18.512
20
43.9482
11
25.362
21
43.9482
0
LINE
8
Black
10
25.362
20
43.9482
11
25.362
21
71.3982
0
LINE
8
Black
10
25.362
20
71.3982
11
25.3628
21
71.4025
0
LINE
8
Black
10
25.3628
20
71.4025
11
25.3628
21
71.4069
0
LINE
8
Black
10
25.3628
20
71.4069
11
25.3643
21
71.411
0
LINE
8
Black
10
25.3643
20
71.411
11
25.365
21
71.4153
0
LINE
8
Black
10
25.365
20
71.4153
11
25.3672
21
71.4191
0
LINE
8
Black
10
25.3672
20
71.4191
11
25.3687
21
71.4232
0
LINE
8
Black
10
25.3687
20
71.4232
11
25.3715
21
71.4266
0
LINE
8
Black
10
25.3715
20
71.4266
11
25.3737
21
71.4303
0
LINE
8
Black
10
25.3737
20
71.4303
11
25.377
21
71.4332
0
LINE
8
Black
10
25.377
20
71.4332
11
25.3799
21
71.4365
0
LINE
8
Black
10
25.3799
20
71.4365
11
25.3836
21
71.4387
0
LINE
8
Black
10
25.3836
20
71.4387
11
25.387
21
71.4415
0
LINE
8
Black
10
25.387
20
71.4415
11
25.3911
21
71.443
0
LINE
8
Black
10
25.3911
20
71.443
11
25.3949
21
71.4452
0
LINE
8
Black
10
25.3949
20
71.4452
11
25.3992
21
71.4459
0
LINE
8
Black
10
25.3992
20
71.4459
11
25.4033
21
71.4474
0
LINE
8
Black
10
25.4033
20
71.4474
11
25.4077
21
71.4474
0
LINE
8
Black
10
25.4077
20
71.4474
11
25.412
21
71.4482
0
LINE
8
Black
10
25.412
20
71.4482
11
53.462
21
71.4482
0
LINE
8
Black
10
53.462
20
71.4482
11
53.4639
21
71.4479
0
LINE
8
Black
10
53.4639
20
71.4479
11
53.4659
21
71.448
0
LINE
8
Black
10
53.4659
20
71.448
11
58.9411
21
71.0171
0
LINE
8
Black
10
58.9411
20
71.0171
11
58.9449
21
71.0162
0
LINE
8
Black
10
58.9449
20
71.0162
11
58.9489
21
71.0159
0
LINE
8
Black
10
58.9489
20
71.0159
11
64.2893
21
69.7338
0
LINE
8
Black
10
64.2893
20
69.7338
11
64.2929
21
69.7322
0
LINE
8
Black
10
64.2929
20
69.7322
11
64.2967
21
69.7314
0
LINE
8
Black
10
64.2967
20
69.7314
11
69.3708
21
67.6296
0
LINE
8
Black
10
69.3708
20
67.6296
11
69.3742
21
67.6275
0
LINE
8
Black
10
69.3742
20
67.6275
11
69.3778
21
67.626
0
LINE
8
Black
10
69.3778
20
67.626
11
74.0606
21
64.7564
0
LINE
8
Black
10
74.0606
20
64.7564
11
74.0636
21
64.7538
0
LINE
8
Black
10
74.0636
20
64.7538
11
74.067
21
64.7518
0
LINE
8
Black
10
74.067
20
64.7518
11
78.2432
21
61.1849
0
LINE
8
Black
10
78.2432
20
61.1849
11
78.2457
21
61.1819
0
LINE
8
Black
10
78.2457
20
61.1819
11
78.2487
21
61.1794
0
LINE
8
Black
10
78.2487
20
61.1794
11
81.8156
21
57.0032
0
LINE
8
Black
10
81.8156
20
57.0032
11
81.8176
21
56.9998
0
LINE
8
Black
10
81.8176
20
56.9998
11
81.8202
21
56.9968
0
LINE
8
Black
10
81.8202
20
56.9968
11
84.6898
21
52.314
0
LINE
8
Black
10
84.6898
20
52.314
11
84.6913
21
52.3104
0
LINE
8
Black
10
84.6913
20
52.3104
11
84.6934
21
52.307
0
LINE
8
Black
10
84.6934
20
52.307
11
86.7952
21
47.2329
0
LINE
8
Black
10
86.7952
20
47.2329
11
86.796
21
47.2291
0
LINE
8
Black
10
86.796
20
47.2291
11
86.7976
21
47.2255
0
LINE
8
Black
10
86.7976
20
47.2255
11
88.0797
21
41.8851
0
LINE
8
Black
10
88.0797
20
41.8851
11
88.08
21
41.8811
0
LINE
8
Black
10
88.08
20
41.8811
11
88.0809
21
41.8773
0
LINE
8
Black
10
88.0809
20
41.8773
11
88.5118
21
36.4021
0
LINE
8
Black
10
88.5118
20
36.4021
11
88.5115
21
36.3982
0
LINE
8
Black
10
88.5115
20
36.3982
11
88.5118
21
36.3943
0
LINE
8
Black
10
88.5118
20
36.3943
11
88.4118
21
35.1236
0
LINE
8
Black
10
88.4118
20
35.1236
11
88.0809
21
30.9191
0
LINE
8
Black
10
86.7013
20
47.1983
11
84.6025
21
52.2651
0
LINE
8
Black
10
84.6025
20
52.2651
11
81.737
21
56.9412
0
LINE
8
Black
10
81.737
20
56.9412
11
78.1752
21
61.1114
0
LINE
8
Black
10
78.1752
20
61.1114
11
74.005
21
64.6732
0
LINE
8
Black
10
74.005
20
64.6732
11
69.3289
21
67.5387
0
LINE
8
Black
10
69.3289
20
67.5387
11
64.2621
21
69.6375
0
LINE
8
Black
10
64.2621
20
69.6375
11
58.9294
21
70.9178
0
LINE
8
Black
10
58.9294
20
70.9178
11
53.46
21
71.3482
0
LINE
8
Black
10
53.46
20
71.3482
11
25.462
21
71.3482
0
LINE
8
Black
10
25.462
20
71.3482
11
25.462
21
43.8982
0
LINE
8
Black
10
25.462
20
43.8982
11
25.4612
21
43.8939
0
LINE
8
Black
10
25.4612
20
43.8939
11
25.4612
21
43.8895
0
LINE
8
Black
10
25.4612
20
43.8895
11
25.4597
21
43.8854
0
LINE
8
Black
10
25.4597
20
43.8854
11
25.459
21
43.8811
0
LINE
8
Black
10
25.459
20
43.8811
11
25.4568
21
43.8773
0
LINE
8
Black
10
25.4568
20
43.8773
11
25.4553
21
43.8732
0
LINE
8
Black
10
25.4553
20
43.8732
11
25.4525
21
43.8698
0
LINE
8
Black
10
25.4525
20
43.8698
11
25.4503
21
43.8661
0
LINE
8
Black
10
25.4503
20
43.8661
11
25.4469
21
43.8633
0
LINE
8
Black
10
25.4469
20
43.8633
11
25.4441
21
43.8599
0
LINE
8
Black
10
25.4441
20
43.8599
11
25.4403
21
43.8577
0
LINE
8
Black
10
25.4403
20
43.8577
11
25.437
21
43.8549
0
LINE
8
Black
10
25.437
20
43.8549
11
25.4329
21
43.8534
0
LINE
8
Black
10
25.4329
20
43.8534
11
25.4291
21
43.8512
0
LINE
8
Black
10
25.4291
20
43.8512
11
25.4248
21
43.8505
0
LINE
8
Black
10
25.4248
20
43.8505
11
25.4207
21
43.849
0
LINE
8
Black
10
25.4207
20
43.849
11
25.4163
21
43.849
0
LINE
8
Black
10
25.4163
20
43.849
11
25.412
21
43.8482
0
LINE
8
Black
10
25.412
20
43.8482
11
18.462
21
43.8482
0
LINE
8
Black
10
18.462
20
43.8482
11
18.4577
21
43.849
0
LINE
8
Black
10
18.4577
20
43.849
11
18.4533
21
43.849
0
LINE
8
Black
10
18.4533
20
43.849
11
18.4492
21
43.8505
0
LINE
8
Black
10
18.4492
20
43.8505
11
18.4449
21
43.8512
0
LINE
8
Black
10
18.4449
20
43.8512
11
18.4411
21
43.8534
0
LINE
8
Black
10
18.4411
20
43.8534
11
18.437
21
43.8549
0
LINE
8
Black
10
18.437
20
43.8549
11
18.4336
21
43.8577
0
LINE
8
Black
10
18.4336
20
43.8577
11
18.4299
21
43.8599
0
LINE
8
Black
10
18.4299
20
43.8599
11
18.427
21
43.8633
0
LINE
8
Black
10
18.427
20
43.8633
11
18.4237
21
43.8661
0
LINE
8
Black
10
18.4237
20
43.8661
11
18.4215
21
43.8698
0
LINE
8
Black
10
18.4215
20
43.8698
11
18.4187
21
43.8732
0
LINE
8
Black
10
18.4187
20
43.8732
11
18.4172
21
43.8773
0
LINE
8
Black
10
18.4172
20
43.8773
11
18.415
21
43.8811
0
LINE
8
Black
10
18.415
20
43.8811
11
18.4143
21
43.8854
0
LINE
8
Black
10
18.4143
20
43.8854
11
18.4128
21
43.8895
0
LINE
8
Black
10
18.4128
20
43.8895
11
18.4128
21
43.8939
0
LINE
8
Black
10
18.4128
20
43.8939
11
18.412
21
43.8982
0
LINE
8
Black
10
18.412
20
43.8982
11
18.412
21
53.8482
0
LINE
8
Black
10
18.412
20
53.8482
11
8.512
21
53.8482
0
LINE
8
Black
10
8.512
20
53.8482
11
8.512
21
43.8982
0
LINE
8
Black
10
8.512
20
43.8982
11
8.51192
21
43.8978
0
LINE
8
Black
10
8.51192
20
43.8978
11
8.51199
21
43.8973
0
LINE
8
Black
10
8.51199
20
43.8973
11
8.51042
21
43.8893
0
LINE
8
Black
10
8.51042
20
43.8893
11
8.50898
21
43.8811
0
LINE
8
Black
10
8.50898
20
43.8811
11
8.50876
21
43.8807
0
LINE
8
Black
10
8.50876
20
43.8807
11
8.50868
21
43.8803
0
LINE
8
Black
10
8.50868
20
43.8803
11
8.50443
21
43.8732
0
LINE
8
Black
10
8.50443
20
43.8732
11
8.5003
21
43.8661
0
LINE
8
Black
10
8.5003
20
43.8661
11
8.49996
21
43.8658
0
LINE
8
Black
10
8.49996
20
43.8658
11
8.49973
21
43.8654
0
LINE
8
Black
10
8.49973
20
43.8654
11
8.49331
21
43.8602
0
LINE
8
Black
10
8.49331
20
43.8602
11
8.487
21
43.8549
0
LINE
8
Black
10
8.487
20
43.8549
11
8.48658
21
43.8547
0
LINE
8
Black
10
8.48658
20
43.8547
11
8.48624
21
43.8545
0
LINE
8
Black
10
8.48624
20
43.8545
11
8.47842
21
43.8518
0
LINE
8
Black
10
8.47842
20
43.8518
11
8.47068
21
43.849
0
LINE
8
Black
10
8.47068
20
43.849
11
8.47024
21
43.849
0
LINE
8
Black
10
8.47024
20
43.849
11
8.46982
21
43.8488
0
LINE
8
Black
10
8.46982
20
43.8488
11
6.16001
21
43.483
0
LINE
8
Black
10
6.16001
20
43.483
11
4.08336
21
42.4249
0
LINE
8
Black
10
4.08336
20
42.4249
11
2.43535
21
40.7768
0
LINE
8
Black
10
2.43535
20
40.7768
11
1.37724
21
38.7002
0
LINE
8
Black
10
1.37724
20
38.7002
11
1.01262
21
36.3982
0
LINE
8
Black
10
1.01262
20
36.3982
11
1.37724
21
34.0962
0
LINE
8
Black
10
1.37724
20
34.0962
11
2.43535
21
32.0196
0
LINE
8
Black
10
2.43535
20
32.0196
11
4.08336
21
30.3715
0
LINE
8
Black
10
4.08336
20
30.3715
11
6.16001
21
29.3134
0
LINE
8
Black
10
6.16001
20
29.3134
11
8.46982
21
28.9476
0
LINE
8
Black
10
8.46982
20
28.9476
11
8.47024
21
28.9474
0
LINE
8
Black
10
8.47024
20
28.9474
11
8.47068
21
28.9474
0
LINE
8
Black
10
8.47068
20
28.9474
11
8.47842
21
28.9446
0
LINE
8
Black
10
8.47842
20
28.9446
11
8.48624
21
28.9419
0
LINE
8
Black
10
8.48624
20
28.9419
11
8.48658
21
28.9417
0
LINE
8
Black
10
8.48658
20
28.9417
11
8.487
21
28.9415
0
LINE
8
Black
10
8.487
20
28.9415
11
8.49331
21
28.9362
0
LINE
8
Black
10
8.49331
20
28.9362
11
8.49973
21
28.931
0
LINE
8
Black
10
8.49973
20
28.931
11
8.49996
21
28.9306
0
LINE
8
Black
10
8.49996
20
28.9306
11
8.5003
21
28.9303
0
LINE
8
Black
10
8.5003
20
28.9303
11
8.50443
21
28.9232
0
LINE
8
Black
10
8.50443
20
28.9232
11
8.50868
21
28.9161
0
LINE
8
Black
10
8.50868
20
28.9161
11
8.50876
21
28.9157
0
LINE
8
Black
10
8.50876
20
28.9157
11
8.50898
21
28.9153
0
LINE
8
Black
10
8.50898
20
28.9153
11
8.51042
21
28.9071
0
LINE
8
Black
10
8.51042
20
28.9071
11
8.51199
21
28.8991
0
LINE
8
Black
10
8.51199
20
28.8991
11
8.51192
21
28.8986
0
LINE
8
Black
10
8.51192
20
28.8986
11
8.512
21
28.8982
0
LINE
8
Black
10
8.512
20
28.8982
11
8.512
21
18.9482
0
LINE
8
Black
10
8.512
20
18.9482
11
18.412
21
18.9482
0
LINE
8
Black
10
18.412
20
18.9482
11
18.412
21
28.8982
0
LINE
8
Black
10
18.412
20
28.8982
11
18.4128
21
28.9025
0
LINE
8
Black
10
18.4128
20
28.9025
11
18.4128
21
28.9069
0
LINE
8
Black
10
18.4128
20
28.9069
11
18.4143
21
28.911
0
LINE
8
Black
10
18.4143
20
28.911
11
18.415
21
28.9153
0
LINE
8
Black
10
18.415
20
28.9153
11
18.4172
21
28.9191
0
LINE
8
Black
10
18.4172
20
28.9191
11
18.4187
21
28.9232
0
LINE
8
Black
10
18.4187
20
28.9232
11
18.4215
21
28.9266
0
LINE
8
Black
10
18.4215
20
28.9266
11
18.4237
21
28.9303
0
LINE
8
Black
10
18.4237
20
28.9303
11
18.427
21
28.9332
0
LINE
8
Black
10
18.427
20
28.9332
11
18.4299
21
28.9365
0
LINE
8
Black
10
18.4299
20
28.9365
11
18.4336
21
28.9387
0
LINE
8
Black
10
18.4336
20
28.9387
11
18.437
21
28.9415
0
LINE
8
Black
10
18.437
20
28.9415
11
18.4411
21
28.943
0
LINE
8
Black
10
18.4411
20
28.943
11
18.4449
21
28.9452
0
LINE
8
Black
10
18.4449
20
28.9452
11
18.4492
21
28.9459
0
LINE
8
Black
10
18.4492
20
28.9459
11
18.4533
21
28.9474
0
LINE
8
Black
10
18.4533
20
28.9474
11
18.4577
21
28.9474
0
LINE
8
Black
10
18.4577
20
28.9474
11
18.462
21
28.9482
0
LINE
8
Black
10
18.462
20
28.9482
11
25.412
21
28.9482
0
LINE
8
Black
10
25.412
20
28.9482
11
25.4163
21
28.9474
0
LINE
8
Black
10
25.4163
20
28.9474
11
25.4207
21
28.9474
0
LINE
8
Black
10
25.4207
20
28.9474
11
25.4248
21
28.9459
0
LINE
8
Black
10
25.4248
20
28.9459
11
25.4291
21
28.9452
0
LINE
8
Black
10
25.4291
20
28.9452
11
25.4329
21
28.943
0
LINE
8
Black
10
25.4329
20
28.943
11
25.437
21
28.9415
0
LINE
8
Black
10
25.437
20
28.9415
11
25.4403
21
28.9387
0
LINE
8
Black
10
25.4403
20
28.9387
11
25.4441
21
28.9365
0
LINE
8
Black
10
25.4441
20
28.9365
11
25.4469
21
28.9332
0
LINE
8
Black
10
25.4469
20
28.9332
11
25.4503
21
28.9303
0
LINE
8
Black
10
25.4503
20
28.9303
11
25.4525
21
28.9266
0
LINE
8
Black
10
25.4525
20
28.9266
11
25.4553
21
28.9232
0
LINE
8
Black
10
25.4553
20
28.9232
11
25.4568
21
28.9191
0
LINE
8
Black
10
25.4568
20
28.9191
11
25.459
21
28.9153
0
LINE
8
Black
10
25.459
20
28.9153
11
25.4597
21
28.911
0
LINE
8
Black
10
25.4597
20
28.911
11
25.4612
21
28.9069
0
LINE
8
Black
10
25.4612
20
28.9069
11
25.4612
21
28.9025
0
LINE
8
Black
10
25.4612
20
28.9025
11
25.462
21
28.8982
0
LINE
8
Black
10
25.462
20
28.8982
11
25.462
21
1.4482
0
LINE
8
Black
10
25.462
20
1.4482
11
53.46
21
1.4482
0
LINE
8
Black
10
53.46
20
1.4482
11
58.9294
21
1.87864
0
LINE
8
Black
10
58.9294
20
1.87864
11
64.2621
21
3.1589
0
LINE
8
Black
10
64.2621
20
3.1589
11
69.3289
21
5.25769
0
LINE
8
Black
10
69.3289
20
5.25769
11
74.005
21
8.12318
0
LINE
8
Black
10
74.005
20
8.12318
11
78.1752
21
11.685
0
LINE
8
Black
10
78.1752
20
11.685
11
81.737
21
15.8552
0
LINE
8
Black
10
81.737
20
15.8552
11
84.6025
21
20.5313
0
LINE
8
Black
10
84.6025
20
20.5313
11
86.7013
21
25.5981
0
LINE
8
Black
10
86.7013
20
25.5981
11
87.9816
21
30.9308
0
LINE
8
Black
10
87.9816
20
30.9308
11
88.4118
21
36.3982
0
LINE
8
Black
10
88.4118
20
36.3982
11
87.9816
21
41.8656
0
LINE
8
Black
10
87.9816
20
41.8656
11
86.7013
21
47.1983
  0
ENDSEC
  0
EOF
